<?xml version="1.0" standalone="no"?>
<!DOCTYPE svg PUBLIC "-//W3C//DTD SVG 1.1//EN" "http://www.w3.org/Graphics/SVG/1.1/DTD/svg11.dtd" >
<svg xmlns="http://www.w3.org/2000/svg" xmlns:xlink="http://www.w3.org/1999/xlink" version="1.1">
<metadata>
Created by FontForge 20170731 at Fri Mar  5 20:58:26 2021
 By Aleksey,,,
</metadata>
<defs>
<font id="HiraKakuPro-W3-AlphaNum" horiz-adv-x="2048" vert-adv-y="2048" >
  <font-face 
    font-family="HiraKakuPro-W3-AlphaNum"
    font-weight="200"
    font-stretch="normal"
    units-per-em="2048"
    panose-1="2 0 3 3 0 0 0 0 0 0"
    ascent="1638"
    descent="-410"
    bbox="31 -209 2017 1767"
    underline-thickness="102"
    underline-position="-307"
    unicode-range="U+2155-32BF"
  />
<missing-glyph horiz-adv-x="748" 
d="M68 0v1365h544v-1365h-544zM136 68h408v1229h-408v-1229z" />
    <glyph glyph-name=".notdef" horiz-adv-x="748" 
d="M68 0v1365h544v-1365h-544zM136 68h408v1229h-408v-1229z" />
    <glyph glyph-name=".null" horiz-adv-x="0" vert-adv-y="0" 
 />
    <glyph glyph-name="nonmarkingreturn" horiz-adv-x="682" 
 />
    <glyph glyph-name="uni2460" unicode="&#x2460;" 
d="M731 1286v144q50 -7 146 -9h112q56 0 146 9q-17 -147 -17 -289v-850q0 -98 15 -197h-175q15 105 15 197v1005h-90q-76 0 -152 -10zM1024 1761q200 0 381.5 -77.5t313 -209t209 -313t77.5 -381.5t-77.5 -382t-208.5 -313.5t-313 -209.5t-382 -78q-199 0 -381 78
t-313 209.5t-209 313.5t-78 382q0 199 78 381t209 313t313 209t381 78zM1024 1694q-186 0 -355 -72.5t-291 -195t-194.5 -291.5t-72.5 -355t72.5 -355.5t194.5 -292t291 -195t355 -72.5t355 72.5t291 195t194.5 292t72.5 355.5t-72.5 355t-194.5 291.5t-291 195t-355 72.5z
" />
    <glyph glyph-name="uni2461" unicode="&#x2461;" 
d="M1280 123h-532q-111 0 -195 -8q15 100 24.5 139.5t28.5 85.5q82 197 268 344q33 28 256 184q108 73 149.5 131.5t41.5 135.5q0 101 -76 159t-209 58q-174 0 -250 -113q-25 -35 -37.5 -72.5t-21.5 -101.5l-154 25q22 96 46 150t67 101q118 136 350 136q201 0 319 -93
t118 -251q0 -146 -115 -261q-45 -45 -176 -135q-211 -143 -275 -198q-137 -122 -176 -287h551q122 0 209 10v-149q-130 10 -211 10zM1024 1761q200 0 381.5 -77.5t313 -209t209 -313t77.5 -381.5t-77.5 -382t-208.5 -313.5t-313 -209.5t-382 -78q-199 0 -381 78t-313 209.5
t-209 313.5t-78 382q0 199 78 381t209 313t313 209t381 78zM1024 1694q-186 0 -355 -72.5t-291 -195t-194.5 -291.5t-72.5 -355t72.5 -355.5t194.5 -292t291 -195t355 -72.5t355 72.5t291 195t194.5 292t72.5 355.5t-72.5 355t-194.5 291.5t-291 195t-355 72.5z" />
    <glyph glyph-name="uni2462" unicode="&#x2462;" 
d="M532 403l154 35q19 -62 40 -95.5t60 -63.5q88 -64 226 -64q151 0 238 71t87 195q0 130 -88 197t-260 67q-67 0 -143 -8v140q88 -9 125 -9q89 0 178 29q66 23 104.5 84.5t38.5 144.5q0 102 -73 162t-199 60q-136 0 -205 -66q-29 -26 -45 -57t-31 -90l-155 34
q38 111 84 164q116 137 360 137q192 0 304 -91.5t112 -248.5q0 -175 -123 -260q-35 -25 -72 -37.5t-100 -21.5q81 -8 129 -23.5t92 -50.5q119 -90 119 -268q0 -177 -126.5 -279t-346.5 -102q-262 0 -393 143q-29 30 -48 67t-43 105zM1024 1761q200 0 381.5 -77.5t313 -209
t209 -313t77.5 -381.5t-77.5 -382t-208.5 -313.5t-313 -209.5t-382 -78q-199 0 -381 78t-313 209.5t-209 313.5t-78 382q0 199 78 381t209 313t313 209t381 78zM1024 1694q-186 0 -355 -72.5t-291 -195t-194.5 -291.5t-72.5 -355t72.5 -355.5t194.5 -292t291 -195t355 -72.5
t355 72.5t291 195t194.5 292t72.5 355.5t-72.5 355t-194.5 291.5t-291 195t-355 72.5z" />
    <glyph glyph-name="uni2463" unicode="&#x2463;" 
d="M436 440v140q64 68 115 133l440 551q77 96 129 178h144q-11 -132 -11 -295v-572h64q113 0 184 13v-152q-107 13 -182 13h-66v-150q0 -109 13 -188h-164q14 92 14 188v150h-467q-131 0 -213 -9zM1116 573v441q0 124 8 231q-51 -75 -118 -160l-406 -512h516zM1024 1761
q200 0 381.5 -77.5t313 -209t209 -313t77.5 -381.5t-77.5 -382t-208.5 -313.5t-313 -209.5t-382 -78q-199 0 -381 78t-313 209.5t-209 313.5t-78 382q0 199 78 381t209 313t313 209t381 78zM1024 1694q-186 0 -355 -72.5t-291 -195t-194.5 -291.5t-72.5 -355t72.5 -355.5
t194.5 -292t291 -195t355 -72.5t355 72.5t291 195t194.5 292t72.5 355.5t-72.5 355t-194.5 291.5t-291 195t-355 72.5z" />
    <glyph glyph-name="uni2464" unicode="&#x2464;" 
d="M741 666l-135 10q18 93 27 178l37 408q6 63 6 112q0 20 -6 60q70 -11 190 -11h357q121 0 206 15v-152q-73 12 -204 12h-406l-37 -360q-2 -42 -16 -98q117 123 305 123q90 0 173 -31.5t142 -87.5q117 -117 117 -312q0 -210 -128.5 -336t-342.5 -126q-209 0 -338 120
q-36 33 -58.5 67t-54.5 99l148 43q21 -60 53 -100q91 -102 252 -102q147 0 234.5 89.5t87.5 239.5q0 149 -84.5 232.5t-233.5 83.5q-69 0 -136 -28.5t-112 -76.5q-21 -24 -43 -71zM1024 1761q200 0 381.5 -77.5t313 -209t209 -313t77.5 -381.5t-77.5 -382t-208.5 -313.5
t-313 -209.5t-382 -78q-199 0 -381 78t-313 209.5t-209 313.5t-78 382q0 199 78 381t209 313t313 209t381 78zM1024 1694q-186 0 -355 -72.5t-291 -195t-194.5 -291.5t-72.5 -355t72.5 -355.5t194.5 -292t291 -195t355 -72.5t355 72.5t291 195t194.5 292t72.5 355.5
t-72.5 355t-194.5 291.5t-291 195t-355 72.5z" />
    <glyph glyph-name="uni2465" unicode="&#x2465;" 
d="M1460 1196l-143 -45q-25 69 -60 109q-80 86 -208 86q-172 0 -269 -160q-47 -78 -69 -172t-29 -258q39 70 82 110q123 111 301 111q199 0 317.5 -119.5t118.5 -320.5q0 -203 -128 -328t-335 -125q-236 0 -368 170q-129 167 -129 487q0 227 67 412q34 94 104 170t156 111
q78 34 189 34q184 0 297 -110q32 -30 53.5 -63t52.5 -99zM1047 854q-145 0 -240.5 -90t-95.5 -227q0 -140 94 -234t235 -94q87 0 160 37.5t113 103.5q45 71 45 187q0 148 -83 232.5t-228 84.5zM1024 1761q200 0 381.5 -77.5t313 -209t209 -313t77.5 -381.5t-77.5 -382
t-208.5 -313.5t-313 -209.5t-382 -78q-199 0 -381 78t-313 209.5t-209 313.5t-78 382q0 199 78 381t209 313t313 209t381 78zM1024 1694q-186 0 -355 -72.5t-291 -195t-194.5 -291.5t-72.5 -355t72.5 -355.5t194.5 -292t291 -195t355 -72.5t355 72.5t291 195t194.5 292
t72.5 355.5t-72.5 355t-194.5 291.5t-291 195t-355 72.5z" />
    <glyph glyph-name="uni2466" unicode="&#x2466;" 
d="M1493 1395v-131q-28 -24 -57 -62.5t-115 -169.5q-133 -202 -223 -448q-50 -137 -76.5 -249t-46.5 -278h-174q29 198 73 348t119 312q124 262 332 538h-561q-128 0 -199 -12v154q99 -13 201 -13h524q125 0 203 11zM1024 1761q200 0 381.5 -77.5t313 -209t209 -313
t77.5 -381.5t-77.5 -382t-208.5 -313.5t-313 -209.5t-382 -78q-199 0 -381 78t-313 209.5t-209 313.5t-78 382q0 199 78 381t209 313t313 209t381 78zM1024 1694q-186 0 -355 -72.5t-291 -195t-194.5 -291.5t-72.5 -355t72.5 -355.5t194.5 -292t291 -195t355 -72.5t355 72.5
t291 195t194.5 292t72.5 355.5t-72.5 355t-194.5 291.5t-291 195t-355 72.5z" />
    <glyph glyph-name="uni2467" unicode="&#x2467;" 
d="M846 805q-117 22 -185.5 107t-68.5 208q0 91 43 165.5t123 121.5q105 59 268 59q200 0 317 -93t117 -251q0 -124 -68.5 -209.5t-185.5 -107.5q117 -19 193 -82q121 -103 121 -264q0 -101 -44 -181t-124 -126q-122 -72 -324 -72q-105 0 -197 23t-151 63q-145 102 -145 293
q0 172 139 278q72 52 172 68zM1026 1343q-127 0 -205 -59q-86 -59 -86 -176q0 -114 78 -180t213 -66t213 66.5t78 181.5q0 106 -79.5 169.5t-211.5 63.5zM1030 737q-161 0 -253.5 -72.5t-92.5 -199.5q0 -124 89.5 -192t252.5 -68q164 0 254 68t90 192q0 126 -91.5 199
t-248.5 73zM1024 1761q200 0 381.5 -77.5t313 -209t209 -313t77.5 -381.5t-77.5 -382t-208.5 -313.5t-313 -209.5t-382 -78q-199 0 -381 78t-313 209.5t-209 313.5t-78 382q0 199 78 381t209 313t313 209t381 78zM1024 1694q-186 0 -355 -72.5t-291 -195t-194.5 -291.5
t-72.5 -355t72.5 -355.5t194.5 -292t291 -195t355 -72.5t355 72.5t291 195t194.5 292t72.5 355.5t-72.5 355t-194.5 291.5t-291 195t-355 72.5z" />
    <glyph glyph-name="uni2468" unicode="&#x2468;" 
d="M594 354l145 45q32 -74 66 -110q77 -80 213 -80q182 0 276 156q52 81 76 223q7 51 14 203q-25 -49 -57.5 -84.5t-85.5 -69.5q-104 -66 -242 -66q-193 0 -312.5 119t-119.5 311q0 166 80 279q65 88 166.5 136t222.5 48q217 0 342 -143q77 -86 112.5 -210.5t35.5 -307.5
q0 -152 -30.5 -288.5t-82.5 -215.5q-138 -217 -401 -217q-198 0 -312 111q-54 51 -106 161zM1024 694q144 0 239 90.5t95 227.5q0 141 -92.5 234t-233.5 93q-86 0 -159.5 -39t-114.5 -106q-45 -70 -45 -178q0 -151 82.5 -236.5t228.5 -85.5zM1024 1761q200 0 381.5 -77.5
t313 -209t209 -313t77.5 -381.5t-77.5 -382t-208.5 -313.5t-313 -209.5t-382 -78q-199 0 -381 78t-313 209.5t-209 313.5t-78 382q0 199 78 381t209 313t313 209t381 78zM1024 1694q-186 0 -355 -72.5t-291 -195t-194.5 -291.5t-72.5 -355t72.5 -355.5t194.5 -292t291 -195
t355 -72.5t355 72.5t291 195t194.5 292t72.5 355.5t-72.5 355t-194.5 291.5t-291 195t-355 72.5z" />
    <glyph glyph-name="uni2469" unicode="&#x2469;" 
d="M401 1288v142q58 -9 125 -9h56q84 0 139 9q-14 -134 -14 -310v-774q0 -121 14 -213h-166q14 88 14 213v952h-45q-74 0 -123 -10zM1303 109q-177 0 -268 169t-91 498q0 325 91.5 496.5t264.5 171.5q177 0 270 -170.5t93 -497.5q0 -325 -92.5 -496t-267.5 -171zM1303 1319
q-110 0 -164 -133.5t-54 -407.5q0 -542 211 -542q226 0 226 544q0 539 -219 539zM1024 1761q200 0 381.5 -77.5t313 -209t209 -313t77.5 -381.5t-77.5 -382t-208.5 -313.5t-313 -209.5t-382 -78q-199 0 -381 78t-313 209.5t-209 313.5t-78 382q0 199 78 381t209 313t313 209
t381 78zM1024 1694q-186 0 -355 -72.5t-291 -195t-194.5 -291.5t-72.5 -355t72.5 -355.5t194.5 -292t291 -195t355 -72.5t355 72.5t291 195t194.5 292t72.5 355.5t-72.5 355t-194.5 291.5t-291 195t-355 72.5z" />
    <glyph glyph-name="uni246A" unicode="&#x246a;" 
d="M444 1288v142q62 -9 125 -9h88q81 0 140 9q-15 -138 -15 -310v-774q0 -122 15 -213h-166q14 88 14 213v952h-78q-77 0 -123 -10zM1128 1288v142q61 -9 125 -9h97q80 0 139 9q-14 -134 -14 -310v-774q0 -128 14 -213h-166q14 88 14 213v952h-86q-77 0 -123 -10zM1024 1761
q200 0 381.5 -77.5t313 -209t209 -313t77.5 -381.5t-77.5 -382t-208.5 -313.5t-313 -209.5t-382 -78q-199 0 -381 78t-313 209.5t-209 313.5t-78 382q0 199 78 381t209 313t313 209t381 78zM1024 1694q-186 0 -355 -72.5t-291 -195t-194.5 -291.5t-72.5 -355t72.5 -355.5
t194.5 -292t291 -195t355 -72.5t355 72.5t291 195t194.5 292t72.5 355.5t-72.5 355t-194.5 291.5t-291 195t-355 72.5z" />
    <glyph glyph-name="uni246B" unicode="&#x246b;" 
d="M403 1292v142q55 -9 123 -9h56q84 0 137 9q-12 -156 -12 -310v-774q0 -121 14 -213h-166q14 83 14 213v953h-45q-67 0 -121 -11zM1120 1055l-141 18q20 113 42 172t60 105q84 100 232 100t231.5 -90t83.5 -248q0 -110 -41.5 -191.5t-148.5 -179.5q-165 -153 -227.5 -250
t-82.5 -233h332q110 0 164 10v-139q-65 8 -168 8h-326q-96 0 -163 -6q3 12 16 109q10 104 54 206.5t112 184.5q71 83 194 203q60 59 82 86t39 65q25 60 25 131q0 95 -48.5 153t-127.5 58q-85 0 -135 -74q-40 -56 -58 -198zM1024 1761q200 0 381.5 -77.5t313 -209t209 -313
t77.5 -381.5t-77.5 -382t-208.5 -313.5t-313 -209.5t-382 -78q-199 0 -381 78t-313 209.5t-209 313.5t-78 382q0 199 78 381t209 313t313 209t381 78zM1024 1694q-186 0 -355 -72.5t-291 -195t-194.5 -291.5t-72.5 -355t72.5 -355.5t194.5 -292t291 -195t355 -72.5t355 72.5
t291 195t194.5 292t72.5 355.5t-72.5 355t-194.5 291.5t-291 195t-355 72.5z" />
    <glyph glyph-name="uni246C" unicode="&#x246c;" 
d="M403 1292v142q55 -9 125 -9h56q84 0 139 9q-14 -129 -14 -310v-774q0 -128 14 -213h-166q14 88 14 213v953h-45q-69 0 -123 -11zM1167 748v135q43 -9 86 -9q109 0 167.5 63t58.5 181q0 99 -49 156t-134 57q-79 0 -120.5 -46t-63.5 -159l-137 29q18 78 40 123t60 86
q89 86 234 86q143 0 225 -86.5t82 -237.5q0 -176 -107 -260q-48 -37 -114 -47q52 -6 83.5 -17.5t63.5 -37.5q111 -85 111 -277q0 -173 -96 -274.5t-259 -101.5q-191 0 -284 125q-27 34 -43 72.5t-35 111.5l139 35q21 -99 55 -144q58 -80 164 -80q100 0 159.5 72.5
t59.5 194.5q0 125 -63.5 191.5t-181.5 66.5q-44 0 -101 -8zM1024 1761q200 0 381.5 -77.5t313 -209t209 -313t77.5 -381.5t-77.5 -382t-208.5 -313.5t-313 -209.5t-382 -78q-199 0 -381 78t-313 209.5t-209 313.5t-78 382q0 199 78 381t209 313t313 209t381 78zM1024 1694
q-186 0 -355 -72.5t-291 -195t-194.5 -291.5t-72.5 -355t72.5 -355.5t194.5 -292t291 -195t355 -72.5t355 72.5t291 195t194.5 292t72.5 355.5t-72.5 355t-194.5 291.5t-291 195t-355 72.5z" />
    <glyph glyph-name="uni246D" unicode="&#x246d;" 
d="M403 1288v142q55 -9 125 -9h56q84 0 139 9q-14 -140 -14 -310v-774q0 -125 14 -213h-166q14 88 14 213v952h-45q-74 0 -123 -10zM1370 1421h152q-9 -141 -9 -288v-560h37q67 0 123 9v-136q-54 7 -125 7h-35v-136q0 -91 11 -184h-150q12 95 12 182v138h-323q-87 0 -162 -7
l-4 132q26 39 78 131l309 538q33 55 86 174zM1386 573v426q0 79 7 215q-28 -66 -80 -155l-273 -486h346zM1024 1761q200 0 381.5 -77.5t313 -209t209 -313t77.5 -381.5t-77.5 -382t-208.5 -313.5t-313 -209.5t-382 -78q-199 0 -381 78t-313 209.5t-209 313.5t-78 382
q0 199 78 381t209 313t313 209t381 78zM1024 1694q-186 0 -355 -72.5t-291 -195t-194.5 -291.5t-72.5 -355t72.5 -355.5t194.5 -292t291 -195t355 -72.5t355 72.5t291 195t194.5 292t72.5 355.5t-72.5 355t-194.5 291.5t-291 195t-355 72.5z" />
    <glyph glyph-name="uni246E" unicode="&#x246e;" 
d="M406 1288v142q52 -9 124 -9h56q84 0 139 9q-14 -143 -14 -310v-774q0 -121 14 -213h-166q14 88 14 213v952h-45q-73 0 -122 -10zM1153 1300l-27 -364q-3 -36 -10 -74q84 115 215 115q149 0 238.5 -114t89.5 -304q0 -205 -98.5 -327.5t-264.5 -122.5q-74 0 -139 26.5
t-108 73.5q-28 31 -48 67.5t-49 110.5l140 39q18 -76 45 -115q28 -37 69.5 -57.5t87.5 -20.5q100 0 161 87.5t61 230.5t-55 224t-152 81q-104 0 -168 -86q-25 -32 -37 -78l-131 10q13 73 20 164l29 400q4 70 4 110q0 27 -2 54q67 -9 143 -9h250q126 0 182 11v-142
q-54 10 -182 10h-264zM1024 1761q200 0 381.5 -77.5t313 -209t209 -313t77.5 -381.5t-77.5 -382t-208.5 -313.5t-313 -209.5t-382 -78q-199 0 -381 78t-313 209.5t-209 313.5t-78 382q0 199 78 381t209 313t313 209t381 78zM1024 1694q-186 0 -355 -72.5t-291 -195
t-194.5 -291.5t-72.5 -355t72.5 -355.5t194.5 -292t291 -195t355 -72.5t355 72.5t291 195t194.5 292t72.5 355.5t-72.5 355t-194.5 291.5t-291 195t-355 72.5z" />
    <glyph glyph-name="uni246F" unicode="&#x246f;" 
d="M406 1288v142q56 -9 124 -9h56q84 0 139 9q-14 -143 -14 -310v-774q0 -121 14 -213h-166q14 88 14 213v952h-45q-73 0 -122 -10zM1636 1180l-137 -37q-21 84 -51 121q-48 63 -125 63q-96 0 -156 -104q-41 -73 -61.5 -176t-26.5 -267q30 75 68 115q84 84 199 84
q146 0 228.5 -116t82.5 -322q0 -192 -97 -312t-251 -120q-108 0 -188 64.5t-124 188.5q-51 138 -51 412q0 162 34 304t93 227q99 141 256 141q134 0 217 -92q29 -32 48 -68.5t42 -105.5zM1321 862q-77 0 -137 -63q-86 -86 -86 -250q0 -140 60.5 -230t154.5 -90
q97 0 154 87.5t57 234.5q0 146 -54 228.5t-149 82.5zM1024 1761q200 0 381.5 -77.5t313 -209t209 -313t77.5 -381.5t-77.5 -382t-208.5 -313.5t-313 -209.5t-382 -78q-199 0 -381 78t-313 209.5t-209 313.5t-78 382q0 199 78 381t209 313t313 209t381 78zM1024 1694
q-186 0 -355 -72.5t-291 -195t-194.5 -291.5t-72.5 -355t72.5 -355.5t194.5 -292t291 -195t355 -72.5t355 72.5t291 195t194.5 292t72.5 355.5t-72.5 355t-194.5 291.5t-291 195t-355 72.5z" />
    <glyph glyph-name="uni2470" unicode="&#x2470;" 
d="M412 1286v141q55 -8 125 -8h71q88 0 140 8q-15 -150 -15 -309v-774q0 -118 15 -213h-166q14 92 14 213v952h-61q-72 0 -123 -10zM1262 131h-158q35 319 119.5 585.5t249.5 579.5h-357q-88 0 -158 -12v146q67 -11 160 -11h346q98 0 160 6v-122q-42 -51 -106 -187.5
t-115 -281.5q-111 -310 -141 -703zM1024 1761q200 0 381.5 -77.5t313 -209t209 -313t77.5 -381.5t-77.5 -382t-208.5 -313.5t-313 -209.5t-382 -78q-199 0 -381 78t-313 209.5t-209 313.5t-78 382q0 199 78 381t209 313t313 209t381 78zM1024 1694q-186 0 -355 -72.5
t-291 -195t-194.5 -291.5t-72.5 -355t72.5 -355.5t194.5 -292t291 -195t355 -72.5t355 72.5t291 195t194.5 292t72.5 355.5t-72.5 355t-194.5 291.5t-291 195t-355 72.5z" />
    <glyph glyph-name="uni2471" unicode="&#x2471;" 
d="M401 1288v142q56 -9 125 -9h56q84 0 137 9q-12 -147 -12 -310v-774q0 -125 14 -213h-166q14 88 14 213v952h-45q-74 0 -123 -10zM1151 811q-48 14 -80 39q-102 88 -102 262q0 154 86.5 243t238.5 89q149 0 235.5 -89t86.5 -243q0 -174 -103 -260q-31 -27 -79 -41
q49 -13 78 -30t57 -48q92 -100 92 -258q0 -169 -100 -266.5t-273 -97.5q-170 0 -268 96.5t-98 263.5q0 160 94 262q30 32 58.5 48.5t76.5 29.5zM1294 1325q-51 0 -93.5 -24.5t-67.5 -67.5q-29 -50 -29 -137q0 -106 50.5 -168t139.5 -62t140 62t51 168q0 114 -55 172
q-54 57 -136 57zM1294 750q-107 0 -167 -70.5t-60 -196.5q0 -122 58 -187t167 -65t168.5 66.5t59.5 189.5t-60.5 193t-165.5 70zM1024 1761q200 0 381.5 -77.5t313 -209t209 -313t77.5 -381.5t-77.5 -382t-208.5 -313.5t-313 -209.5t-382 -78q-199 0 -381 78t-313 209.5
t-209 313.5t-78 382q0 199 78 381t209 313t313 209t381 78zM1024 1694q-186 0 -355 -72.5t-291 -195t-194.5 -291.5t-72.5 -355t72.5 -355.5t194.5 -292t291 -195t355 -72.5t355 72.5t291 195t194.5 292t72.5 355.5t-72.5 355t-194.5 291.5t-291 195t-355 72.5z" />
    <glyph glyph-name="uni2472" unicode="&#x2472;" 
d="M401 1292v142q68 -9 125 -9h56q84 0 139 9q-14 -140 -14 -310v-774q0 -125 14 -213h-166q14 88 14 213v953h-45q-69 0 -123 -11zM969 379l139 39q20 -84 51 -125q48 -64 127 -64q62 0 110 44t77 128q41 115 53 377q-20 -47 -34.5 -71t-39.5 -48q-79 -79 -192 -79
q-145 0 -229.5 116t-84.5 314t95.5 319t252.5 121q107 0 187.5 -64t124.5 -184q51 -143 51 -418q0 -164 -29.5 -301t-83.5 -223q-44 -71 -113 -109t-153 -38q-136 0 -219 92q-29 32 -48 68.5t-42 105.5zM1284 696q76 0 137 64q84 87 84 250q0 136 -61 227.5t-152 91.5
q-95 0 -152 -87.5t-57 -235.5q0 -145 53.5 -227.5t147.5 -82.5zM1024 1761q200 0 381.5 -77.5t313 -209t209 -313t77.5 -381.5t-77.5 -382t-208.5 -313.5t-313 -209.5t-382 -78q-199 0 -381 78t-313 209.5t-209 313.5t-78 382q0 199 78 381t209 313t313 209t381 78z
M1024 1694q-186 0 -355 -72.5t-291 -195t-194.5 -291.5t-72.5 -355t72.5 -355.5t194.5 -292t291 -195t355 -72.5t355 72.5t291 195t194.5 292t72.5 355.5t-72.5 355t-194.5 291.5t-291 195t-355 72.5z" />
    <glyph glyph-name="uni2473" unicode="&#x2473;" 
d="M1409 111q-173 0 -261.5 170t-88.5 503q0 321 90 490.5t260 169.5q173 0 263.5 -170.5t90.5 -497.5q0 -324 -90.5 -494.5t-263.5 -170.5zM1409 1321q-108 0 -160.5 -133t-52.5 -408q0 -544 211 -544q219 0 219 542q0 543 -217 543zM1026 1759q200 0 381.5 -77.5t313 -209
t209 -313t77.5 -381.5t-77.5 -381.5t-209 -313t-313 -209t-381.5 -77.5t-382 78t-313.5 209t-209.5 313t-78 381t78 381t209.5 313t313.5 209t382 78zM819 133h-323q-64 0 -117 -2q134 -131 299 -199.5t348 -68.5q186 0 356 72.5t292.5 195t195 292t72.5 355.5t-72.5 355
t-195 291.5t-292.5 195t-356 72.5t-355.5 -72.5t-292 -195t-195 -291.5t-72.5 -355q0 -344 231 -608q1 6 1.5 11t1 9.5l2 18t3.5 29.5q24 223 191 415q21 26 90 99q53 53 92 94q58 60 80 96q43 73 43 168q0 97 -48 155t-128 58q-89 0 -138 -76q-37 -54 -53 -198l-137 18
q34 195 113 286t217 91q142 0 224.5 -90.5t82.5 -247.5q0 -111 -40.5 -191.5t-147.5 -181.5q-165 -157 -224.5 -250.5t-81.5 -228.5h338q109 0 160 10v-139q-63 8 -164 8z" />
    <glyph glyph-name="uni2160" unicode="&#x2160;" 
d="M928 1556h194q-18 -102 -18 -229v-1098q0 -124 18 -229h-194q16 101 16 229v1098q0 130 -16 229z" />
    <glyph glyph-name="uni2161" unicode="&#x2161;" 
d="M674 1556h190q-16 -96 -16 -229v-1098q0 -133 16 -229h-190q16 96 16 229v1098q0 128 -16 229zM1184 1556h190q-16 -93 -16 -229v-1098q0 -133 16 -229h-190q16 93 16 229v1098q0 130 -16 229z" />
    <glyph glyph-name="uni2162" unicode="&#x2162;" 
d="M438 1556h187q-17 -99 -17 -231v-1094q0 -132 17 -231h-187q17 102 17 231v1094q0 129 -17 231zM928 1556h186q-16 -93 -16 -231v-1094q0 -132 16 -231h-186q16 99 16 231v1094q0 135 -16 231zM1421 1556h187q-17 -99 -17 -231v-1094q0 -126 17 -231h-187q17 108 17 231
v1094q0 129 -17 231z" />
    <glyph glyph-name="uni2163" unicode="&#x2163;" 
d="M854 1343l367 -1032q0 -5 6 -20q8 -24 16 -49q2 -9 25 -76q21 80 43 145l364 1032q47 134 58 213h204q-43 -75 -100 -237l-416 -1126q-42 -113 -61 -193h-189q-10 45 -14 55q-29 76 -49 138l-416 1126q-66 177 -100 237h205q17 -99 57 -213zM240 1556h186
q-16 -93 -16 -231v-1094q0 -138 16 -231h-186q16 96 16 231v1094q0 135 -16 231z" />
    <glyph glyph-name="uni2164" unicode="&#x2164;" 
d="M588 1348l389 -1049q37 -106 49 -143q12 37 27.5 84.5t19.5 58.5l385 1049q52 134 60 208h213q-39 -65 -105 -237l-438 -1129q-49 -127 -64 -190h-198q-9 50 -66 190l-438 1129q-61 161 -105 237h211q15 -80 60 -208z" />
    <glyph glyph-name="uni2165" unicode="&#x2165;" 
d="M373 1343l366 -1032q2 -8 10.5 -30.5t12.5 -34.5q1 -2 24 -80q21 79 45 145l363 1032q46 135 57 213h205q-41 -74 -100 -237l-416 -1126q-48 -134 -59 -193h-191q-9 39 -14 55q-25 70 -47 138l-418 1126q-59 164 -100 237h204q16 -96 58 -213zM1620 1556h186
q-16 -93 -16 -231v-1094q0 -138 16 -231h-186q16 96 16 231v1094q0 135 -16 231z" />
    <glyph glyph-name="uni2166" unicode="&#x2166;" 
d="M1051 1556h190q-36 -70 -92 -237l-371 -1126q-31 -91 -53 -193h-162q-13 62 -55 193l-373 1126q-57 169 -92 237h184q11 -77 56 -210l325 -1018q10 -25 35 -133q21 90 33 127l325 1024q38 124 50 210zM1321 1556h178q-16 -96 -16 -231v-1094q0 -138 16 -231h-178
q16 99 16 231v1094q0 138 -16 231zM1726 1556h179q-17 -96 -17 -231v-1094q0 -129 17 -231h-179q17 108 17 231v1094q0 126 -17 231z" />
    <glyph glyph-name="uni2167" unicode="&#x2167;" 
d="M874 1556h173q-34 -90 -72 -237l-303 -1126q-37 -138 -45 -193h-150q-6 49 -45 193l-303 1126q-37 135 -76 237h174q5 -72 41 -213l262 -1017q7 -20 11 -45t12 -60q9 40 12 62q7 40 8 43l263 1017q29 111 38 213zM1102 1556h168q-17 -102 -17 -231v-1094q0 -129 17 -231
h-168q16 96 16 231v1094q0 132 -16 231zM1440 1556h168q-17 -102 -17 -231v-1094q0 -135 17 -231h-168q16 93 16 231v1094q0 135 -16 231zM1776 1556h168q-17 -99 -17 -231v-1094q0 -132 17 -231h-168q16 101 16 231v1094q0 132 -16 231z" />
    <glyph glyph-name="uni2168" unicode="&#x2168;" 
d="M1260 707l-316 -498q-56 -86 -110 -209h-228q97 127 172 240l381 581l-336 510q-81 120 -157 225h221q40 -100 98 -190l279 -430l270 430q67 105 96 190h223q-81 -109 -157 -225l-336 -510l381 -577q75 -116 178 -244h-229q-69 138 -113 205zM242 1556h186
q-16 -93 -16 -231v-1094q0 -138 16 -231h-186q16 96 16 231v1094q0 135 -16 231z" />
    <glyph glyph-name="uni2169" unicode="&#x2169;" 
d="M1020 713l-338 -504q-76 -119 -123 -209h-233q64 83 182 244l412 579l-363 512q-78 106 -168 221h229q36 -79 115 -194l293 -432l283 432q84 127 112 194h232q-92 -113 -170 -223l-361 -510l410 -575q66 -93 188 -248h-235q-79 137 -127 207z" />
    <glyph glyph-name="Japan1.8061" 
d="M1767 203h203v-203h-203v203zM1016 -31q-229 0 -375 146q-87 87 -123 188q-78 219 -78 473q0 163 32.5 315.5t86.5 241.5q149 252 459 252q236 0 375 -145q85 -85 123 -189q77 -213 77 -475q0 -186 -37.5 -342t-105.5 -250q-153 -215 -434 -215zM1016 1444
q-157 0 -256 -105q-69 -75 -92 -149q-64 -186 -64 -414q0 -141 27 -277.5t69 -209.5q108 -178 318 -178q159 0 252 96q69 72 96 160q64 189 64 413q0 133 -26.5 269t-66.5 208q-103 187 -321 187z" />
    <glyph glyph-name="uni2488" unicode="&#x2488;" 
d="M1769 203h203v-203h-203v203zM676 1405v162q73 -11 170 -11h129q77 0 170 11q-19 -198 -19 -340v-996q0 -123 17 -231h-195q17 102 17 231v1186h-111q-90 0 -178 -12z" />
    <glyph glyph-name="uni2489" unicode="&#x2489;" 
d="M1767 203h203v-203h-203v203zM1313 0h-623q-146 0 -225 -12q18 128 27.5 172t31.5 100q73 185 267 352q56 47 97.5 77.5t215.5 148.5q151 102 210.5 180t59.5 172q0 117 -92 186.5t-248 69.5q-205 0 -297 -133q-30 -42 -45.5 -86.5t-25.5 -120.5l-172 31
q24 110 51.5 173.5t77.5 119.5q139 157 411 157q233 0 370.5 -108.5t137.5 -292.5q0 -110 -48.5 -199t-152.5 -168q-58 -42 -270 -186q-115 -78 -180 -134t-113 -118t-72.5 -112.5t-43.5 -123.5h653q133 0 250 15v-172q-123 12 -252 12z" />
    <glyph glyph-name="uni248A" unicode="&#x248a;" 
d="M1767 203h203v-203h-203v203zM436 336l172 41q25 -78 51.5 -118.5t73.5 -74.5q104 -73 264 -73q179 0 283 85.5t104 231.5q0 152 -106.5 232.5t-310.5 80.5q-72 0 -164 -10v160q78 -10 151 -10q205 0 299 94q38 37 60 90t22 109q0 132 -87 205t-242 73q-189 0 -273 -109
q-21 -27 -34 -56.5t-31 -88.5l-170 37q27 80 50 123t60 82q137 149 408 149q223 0 354 -108.5t131 -292.5q0 -94 -38 -173t-105 -126q-39 -29 -80.5 -44.5t-112.5 -29.5q88 -9 143.5 -28.5t108.5 -59.5q137 -107 137 -309q0 -207 -149.5 -328t-405.5 -121q-312 0 -458 168
q-33 37 -55.5 79.5t-49.5 119.5z" />
    <glyph glyph-name="uni248B" unicode="&#x248b;" 
d="M1769 203h203v-203h-203v203zM399 389v154q16 18 133 157l519 648q87 107 153 208h154q-12 -145 -12 -346v-671h77q109 0 213 14v-170q-106 14 -215 14h-75v-176q0 -120 16 -221h-186q16 96 16 221v176h-549q-153 0 -244 -8zM1194 537v520q0 153 12 278
q-61 -86 -153 -205l-471 -593h612z" />
    <glyph glyph-name="uni248C" unicode="&#x248c;" 
d="M1769 203h203v-203h-203v203zM750 1415l-43 -452q-3 -30 -17 -93q148 142 359 142q225 0 368 -140q137 -134 137 -362q0 -248 -150 -394.5t-403 -146.5q-243 0 -391 142q-38 37 -65 76.5t-64 113.5l168 51q27 -77 66 -121q108 -120 291 -120q172 0 277.5 107t105.5 284
q0 170 -98 272.5t-261 102.5q-156 0 -268 -86q-37 -29 -57 -55.5t-37 -67.5l-154 14q22 110 31 211l45 463q6 89 6 123q0 37 -4 88q87 -11 217 -11h422q123 0 239 17v-174q-104 16 -239 16h-481z" />
    <glyph glyph-name="uni248D" unicode="&#x248d;" 
d="M1769 203h203v-203h-203v203zM1538 1270l-164 -53q-37 91 -71 129q-91 102 -244 102q-241 0 -354 -254q-40 -94 -58.5 -184.5t-28.5 -255.5q29 49 49.5 76t53.5 55q140 125 346 125q237 0 375.5 -138.5t138.5 -375.5t-147.5 -382t-389.5 -145q-109 0 -206.5 34t-163.5 95
q-100 92 -153.5 258.5t-53.5 384.5q0 192 41.5 356.5t114.5 264.5q165 223 432 223q189 0 311 -86q54 -38 91 -87.5t81 -141.5zM1419 494q0 181 -97.5 279.5t-277.5 98.5q-77 0 -152.5 -31t-129.5 -85q-103 -103 -103 -260q0 -166 111 -276.5t277 -110.5q100 0 186 44.5
t133 120.5q53 85 53 220z" />
    <glyph glyph-name="uni248E" unicode="&#x248e;" 
d="M1767 203h203v-203h-203v203zM1556 1567v-150q-28 -22 -59.5 -63t-91.5 -133q-138 -214 -214 -368t-136 -341q-40 -129 -62.5 -232.5t-46.5 -279.5h-194q50 281 101.5 451.5t145.5 365.5q73 152 152 278.5t217 315.5h-666q-122 0 -231 -14v174q120 -15 234 -15h614
q138 0 237 11z" />
    <glyph glyph-name="uni248F" unicode="&#x248f;" 
d="M1767 203h203v-203h-203v203zM1225 815q115 -16 211 -88q153 -117 153 -321q0 -211 -147.5 -325t-417.5 -114q-281 0 -431.5 113.5t-150.5 325.5q0 221 183 337q47 32 86.5 47.5t97.5 24.5q-135 25 -216 125.5t-81 241.5q0 187 136 297t368 110q235 0 370.5 -108
t135.5 -297q0 -143 -80.5 -243t-216.5 -126zM1016 1452q-157 0 -250.5 -76.5t-93.5 -204.5q0 -136 92.5 -214t253.5 -78t252.5 77.5t91.5 214.5q0 129 -94 205t-252 76zM1016 737q-189 0 -297.5 -86t-108.5 -235q0 -146 106.5 -228t297.5 -82q222 0 329 107q78 72 78 203
q0 151 -108 236t-297 85z" />
    <glyph glyph-name="uni2490" unicode="&#x2490;" 
d="M1767 203h203v-203h-203v203zM477 287l168 53q19 -52 34.5 -79.5t39.5 -53.5q87 -96 258 -96q219 0 330 188q63 109 88 264q11 70 18 238q-37 -68 -82 -113q-78 -74 -168 -108.5t-205 -34.5q-233 0 -368 135q-66 66 -102.5 163t-36.5 206q0 244 151.5 391t403.5 147
q172 0 304.5 -92.5t190.5 -253.5q60 -160 60 -424q0 -215 -43.5 -384t-126.5 -271q-151 -191 -426 -191q-212 0 -344 111q-44 38 -74.5 81t-69.5 124zM977 682q170 0 283.5 108t113.5 271q0 166 -109.5 276.5t-273.5 110.5q-101 0 -187.5 -46t-137.5 -128q-54 -87 -54 -215
q0 -173 99 -275t266 -102z" />
    <glyph glyph-name="uni2474" unicode="&#x2474;" 
d="M367 -176l-72 -33q-66 128 -102 213q-152 373 -152 774q0 404 152 774q32 76 102 215l72 -32q-70 -127 -101 -203q-147 -346 -147 -754q0 -404 147 -751q31 -76 101 -203zM1755 -209l-72 33q70 127 101 203q147 347 147 751t-147 754q-31 76 -101 203l72 32
q76 -151 103 -215q151 -370 151 -774t-151 -774q-32 -75 -103 -213zM702 1405v162q73 -11 168 -11h129q77 0 170 11q-18 -187 -18 -340v-996q0 -130 16 -231h-194q16 96 16 231v1186h-110q-89 0 -177 -12z" />
    <glyph glyph-name="uni2475" unicode="&#x2475;" 
d="M367 -176l-72 -33q-66 128 -102 213q-152 373 -152 774q0 404 152 774q32 76 102 215l72 -32q-70 -127 -101 -203q-147 -346 -147 -754q0 -404 147 -751q31 -76 101 -203zM1755 -209l-72 33q70 127 101 203q147 347 147 751t-147 754q-31 76 -101 203l72 32
q76 -151 103 -215q151 -370 151 -774t-151 -774q-32 -75 -103 -213zM1300 0h-622q-149 0 -225 -12q18 128 27.5 172t31.5 100q74 187 266 352q54 46 95 75.5t219 150.5q151 102 210.5 180t59.5 172q0 117 -92 186.5t-248 69.5q-205 0 -297 -133q-30 -42 -46 -87t-26 -120
l-172 31q24 110 51.5 173.5t77.5 119.5q139 157 412 157q232 0 370 -108t138 -289q0 -158 -121 -291q-44 -51 -104.5 -96.5t-243.5 -167.5q-120 -81 -181.5 -134t-113.5 -118q-48 -64 -73.5 -115t-43.5 -123h654q132 0 249 15v-172q-123 12 -252 12z" />
    <glyph glyph-name="uni2476" unicode="&#x2476;" 
d="M436 336l172 41q25 -78 51.5 -118.5t73.5 -74.5q104 -73 264 -73q179 0 283 85.5t104 231.5q0 154 -106.5 233.5t-310.5 79.5q-72 0 -164 -10v160q78 -10 151 -10q205 0 299 94q38 37 60 90t22 109q0 132 -87 205t-242 73q-189 0 -273 -109q-21 -27 -34 -56.5t-31 -88.5
l-170 37q27 80 50 123t60 82q137 149 408 149q223 0 354 -108.5t131 -292.5q0 -94 -38 -173t-105 -126q-39 -29 -80.5 -44.5t-112.5 -29.5q88 -9 143.5 -28.5t108.5 -59.5q137 -107 137 -309q0 -207 -149.5 -328t-405.5 -121q-312 0 -458 168q-33 37 -55.5 79.5t-49.5 119.5
zM367 -176l-72 -33q-66 128 -102 213q-152 373 -152 774q0 404 152 774q32 76 102 215l72 -32q-70 -127 -101 -203q-147 -346 -147 -754q0 -404 147 -751q31 -76 101 -203zM1755 -209l-72 33q70 127 101 203q147 347 147 751t-147 754q-31 76 -101 203l72 32
q76 -151 103 -215q151 -370 151 -774t-151 -774q-32 -75 -103 -213z" />
    <glyph glyph-name="uni2477" unicode="&#x2477;" 
d="M389 389v154q16 18 133 157l516 648q92 113 154 208h154q-13 -157 -13 -346v-671h78q109 0 215 14v-170q-106 14 -217 14h-76v-176q0 -113 17 -221h-187q17 102 17 221v176h-547q-153 0 -244 -8zM1182 537v520q0 153 12 278q-51 -72 -154 -205l-469 -593h611zM367 -176
l-72 -33q-66 128 -102 213q-152 373 -152 774q0 404 152 774q32 76 102 215l72 -32q-70 -127 -101 -203q-147 -346 -147 -754q0 -404 147 -751q31 -76 101 -203zM1755 -209l-72 33q70 127 101 203q147 347 147 751t-147 754q-31 76 -101 203l72 32q76 -151 103 -215
q151 -370 151 -774t-151 -774q-32 -75 -103 -213z" />
    <glyph glyph-name="uni2478" unicode="&#x2478;" 
d="M367 -176l-72 -33q-66 128 -102 213q-152 373 -152 774q0 404 152 774q32 76 102 215l72 -32q-70 -127 -101 -203q-147 -346 -147 -754q0 -404 147 -751q31 -76 101 -203zM1755 -209l-72 33q70 127 101 203q147 347 147 751t-147 754q-31 76 -101 203l72 32
q76 -151 103 -215q151 -370 151 -774t-151 -774q-32 -75 -103 -213zM756 1415l-43 -452q-3 -30 -17 -93q148 142 359 142q225 0 368 -140q138 -135 138 -362q0 -248 -150 -394.5t-403 -146.5q-244 0 -392 142q-38 37 -65 76.5t-64 113.5l168 51q27 -77 66 -121
q108 -120 291 -120q172 0 277.5 107t105.5 284q0 170 -98 272.5t-261 102.5q-156 0 -268 -86q-37 -29 -57 -55.5t-37 -67.5l-154 14q22 110 31 211l45 463q6 89 6 123q0 37 -4 88q87 -11 217 -11h422q124 0 240 17v-174q-104 16 -240 16h-481z" />
    <glyph glyph-name="uni2479" unicode="&#x2479;" 
d="M367 -176l-72 -33q-66 128 -102 213q-152 373 -152 774q0 404 152 774q32 76 102 215l72 -32q-70 -127 -101 -203q-147 -346 -147 -754q0 -404 147 -751q31 -76 101 -203zM1755 -209l-72 33q70 127 101 203q147 347 147 751t-147 754q-31 76 -101 203l72 32
q76 -151 103 -215q151 -370 151 -774t-151 -774q-32 -75 -103 -213zM1522 1270l-164 -53q-36 89 -72 129q-88 102 -244 102q-241 0 -354 -254q-40 -93 -58 -183.5t-28 -256.5q29 49 49.5 76t53.5 55q142 125 346 125q237 0 375.5 -138.5t138.5 -375.5t-147.5 -382
t-389.5 -145q-109 0 -207 34t-164 95q-100 92 -153 258.5t-53 384.5q0 193 41 357.5t114 263.5q165 223 432 223q190 0 312 -86q54 -38 91 -87.5t81 -141.5zM1030 109q100 0 186.5 44.5t133.5 120.5q53 89 53 220q0 181 -97.5 279.5t-277.5 98.5q-77 0 -153 -31t-130 -85
q-102 -102 -102 -260q0 -166 110.5 -276.5t276.5 -110.5z" />
    <glyph glyph-name="uni247A" unicode="&#x247a;" 
d="M367 -176l-72 -33q-66 128 -102 213q-152 373 -152 774q0 404 152 774q32 76 102 215l72 -32q-70 -127 -101 -203q-147 -346 -147 -754q0 -404 147 -751q31 -76 101 -203zM1755 -209l-72 33q70 127 101 203q147 347 147 751t-147 754q-31 76 -101 203l72 32
q76 -151 103 -215q151 -370 151 -774t-151 -774q-32 -75 -103 -213zM1587 1520v-150q-28 -22 -59.5 -63t-91.5 -133q-139 -215 -215 -368.5t-136 -340.5q-40 -128 -61.5 -231t-46.5 -281h-195q50 280 101.5 450.5t146.5 366.5q73 152 152 278.5t217 315.5h-666
q-122 0 -231 -14v174q120 -15 233 -15h615q138 0 237 11z" />
    <glyph glyph-name="uni247B" unicode="&#x247b;" 
d="M367 -176l-72 -33q-66 128 -102 213q-152 373 -152 774q0 404 152 774q32 76 102 215l72 -32q-70 -127 -101 -203q-147 -346 -147 -754q0 -404 147 -751q31 -76 101 -203zM1755 -209l-72 33q70 127 101 203q147 347 147 751t-147 754q-31 76 -101 203l72 32
q76 -151 103 -215q151 -370 151 -774t-151 -774q-32 -75 -103 -213zM1231 815q116 -17 211 -88q153 -117 153 -321q0 -211 -147.5 -325t-417.5 -114q-281 0 -431 113.5t-150 325.5q0 221 180 337q46 32 87 47.5t99 24.5q-136 25 -217.5 125.5t-81.5 241.5q0 187 136 297
t368 110q235 0 370.5 -108t135.5 -297q0 -143 -80 -243t-215 -126zM1020 1452q-157 0 -250.5 -76.5t-93.5 -204.5q0 -136 92.5 -214t253.5 -78t252.5 77.5t91.5 214.5q0 129 -94 205t-252 76zM1022 737q-189 0 -297.5 -86t-108.5 -235q0 -146 106.5 -228t297.5 -82
q223 0 330 107q77 71 77 203q0 151 -108 236t-297 85z" />
    <glyph glyph-name="uni247C" unicode="&#x247c;" 
d="M367 -176l-72 -33q-66 128 -102 213q-152 373 -152 774q0 404 152 774q32 76 102 215l72 -32q-70 -127 -101 -203q-147 -346 -147 -754q0 -404 147 -751q31 -76 101 -203zM1755 -209l-72 33q70 127 101 203q147 347 147 751t-147 754q-31 76 -101 203l72 32
q76 -151 103 -215q151 -370 151 -774t-151 -774q-32 -75 -103 -213zM483 287l168 53q19 -52 34.5 -79.5t39.5 -53.5q87 -96 258 -96q219 0 330 188q63 109 88 264q11 70 18 238q-37 -68 -82 -113q-78 -74 -167.5 -108.5t-204.5 -34.5q-234 0 -369 135q-66 66 -102.5 163
t-36.5 206q0 244 151.5 391t403.5 147q172 0 304.5 -92.5t190.5 -253.5q60 -162 60 -432q0 -208 -44.5 -377t-125.5 -270q-151 -191 -426 -191q-212 0 -344 111q-44 38 -74.5 81t-69.5 124zM983 682q170 0 283.5 108t113.5 271q0 166 -109.5 276.5t-273.5 110.5
q-101 0 -187.5 -46t-137.5 -128q-54 -87 -54 -215q0 -173 99 -275t266 -102z" />
    <glyph glyph-name="uni247D" unicode="&#x247d;" 
d="M326 1411v154q59 -9 133 -9h61q90 0 148 9q-15 -156 -15 -330v-1004q0 -129 15 -231h-174q14 98 14 231v1190h-57q-76 0 -125 -10zM1323 -31q-192 0 -291.5 205t-99.5 602q0 398 100 603.5t293 205.5q197 0 298 -205t101 -604q0 -488 -157 -688q-43 -55 -108 -87
t-136 -32zM1327 1450q-248 0 -248 -666q0 -345 61 -510t187 -165q128 0 189 165t61 510q0 666 -250 666zM367 -176l-72 -33q-66 128 -102 213q-152 373 -152 774q0 404 152 774q32 76 102 215l72 -32q-70 -127 -101 -203q-147 -346 -147 -754q0 -404 147 -751
q31 -76 101 -203zM1755 -209l-72 33q70 127 101 203q147 347 147 751t-147 754q-31 76 -101 203l72 32q76 -151 103 -215q151 -370 151 -774t-151 -774q-32 -75 -103 -213z" />
    <glyph glyph-name="uni247E" unicode="&#x247e;" 
d="M395 1411v156q62 -11 146 -11h84q89 0 151 9q-14 -146 -14 -330v-1004q0 -133 14 -231h-178q14 98 14 231v1190h-84q-79 0 -133 -10zM1139 1413v152q68 -9 143 -9h92q90 0 152 9q-15 -150 -15 -330v-1002q0 -131 15 -233h-178q14 101 14 233v1190h-86q-76 0 -137 -10z
M367 -176l-72 -33q-66 128 -102 213q-152 373 -152 774q0 404 152 774q32 76 102 215l72 -32q-70 -127 -101 -203q-147 -346 -147 -754q0 -404 147 -751q31 -76 101 -203zM1755 -209l-72 33q70 127 101 203q147 347 147 751t-147 754q-31 76 -101 203l72 32
q76 -151 103 -215q151 -370 151 -774t-151 -774q-32 -75 -103 -213z" />
    <glyph glyph-name="uni247F" unicode="&#x247f;" 
d="M1495 0h-371q-108 0 -194 -6q6 41 12 100q27 241 178 453q39 55 78 99t205 220q87 92 119 160q32 75 32 170q0 115 -59 184.5t-156 69.5q-121 0 -176 -102q-24 -43 -36 -94.5t-21 -147.5l-152 24q15 114 34.5 180t55.5 124q96 153 293 153q169 0 267 -108t98 -295
q0 -100 -28.5 -179.5t-94.5 -158.5q-47 -59 -193 -205q-132 -133 -195 -245.5t-89 -260.5h395q129 0 199 12v-155q-79 8 -201 8zM367 -176l-72 -33q-66 128 -102 213q-152 373 -152 774q0 404 152 774q32 76 102 215l72 -32q-70 -127 -101 -203q-147 -346 -147 -754
q0 -404 147 -751q31 -76 101 -203zM1755 -209l-72 33q70 127 101 203q147 347 147 751t-147 754q-31 76 -101 203l72 32q76 -151 103 -215q151 -370 151 -774t-151 -774q-32 -75 -103 -213zM326 1411v154q59 -9 133 -9h61q90 0 148 9q-15 -156 -15 -330v-1004
q0 -129 15 -231h-174q14 98 14 231v1190h-57q-76 0 -125 -10z" />
    <glyph glyph-name="uni2480" unicode="&#x2480;" 
d="M895 340l147 39q25 -140 78 -201q60 -72 164 -72q110 0 176 87.5t66 234.5q0 185 -84 260q-72 66 -187 66q-50 0 -104 -13v154q45 -10 92 -10q114 0 179 81t65 222q0 125 -53.5 196.5t-147.5 71.5q-86 0 -133.5 -59.5t-69.5 -194.5l-145 33q22 99 45 154.5t61 97.5
q88 102 248 102q155 0 246.5 -106t91.5 -287q0 -155 -59.5 -249t-175.5 -122q53 -7 87 -22.5t70 -46.5q119 -104 119 -328q0 -215 -103 -337t-284 -122q-213 0 -315 166q-44 76 -74 205zM367 -176l-72 -33q-66 128 -102 213q-152 373 -152 774q0 404 152 774q32 76 102 215
l72 -32q-70 -127 -101 -203q-147 -346 -147 -754q0 -404 147 -751q31 -76 101 -203zM1755 -209l-72 33q70 127 101 203q147 347 147 751t-147 754q-31 76 -101 203l72 32q76 -151 103 -215q151 -370 151 -774t-151 -774q-32 -75 -103 -213zM326 1411v154q59 -9 133 -9h61
q90 0 148 9q-15 -156 -15 -330v-1004q0 -129 15 -231h-174q14 98 14 231v1190h-57q-76 0 -125 -10z" />
    <glyph glyph-name="uni2481" unicode="&#x2481;" 
d="M1403 1556h149q-10 -141 -10 -346v-684h39q98 0 160 11v-148q-45 6 -164 6h-35v-172q0 -109 12 -223h-157q12 123 12 221v174h-383q-113 0 -176 -8v150q37 55 92 157l363 652q43 75 98 210zM1409 526v514q0 87 10 263q-36 -80 -92 -185l-326 -592h408zM367 -176l-72 -33
q-66 128 -102 213q-152 373 -152 774q0 404 152 774q32 76 102 215l72 -32q-70 -127 -101 -203q-147 -346 -147 -754q0 -404 147 -751q31 -76 101 -203zM1755 -209l-72 33q70 127 101 203q147 347 147 751t-147 754q-31 76 -101 203l72 32q76 -151 103 -215
q151 -370 151 -774t-151 -774q-32 -75 -103 -213zM326 1411v154q59 -9 133 -9h61q90 0 148 9q-15 -156 -15 -330v-1004q0 -129 15 -231h-174q14 98 14 231v1190h-57q-76 0 -125 -10z" />
    <glyph glyph-name="uni2482" unicode="&#x2482;" 
d="M1135 1421l-31 -442q-3 -55 -10 -92q29 42 55 65q76 64 186 64q163 0 262 -138t99 -364q0 -252 -107 -398.5t-291 -146.5q-182 0 -292 144q-51 66 -91 194l144 47q25 -104 63 -157q65 -91 174 -91q114 0 184 109t70 289t-62 279.5t-175 99.5q-111 0 -185 -90
q-33 -40 -57 -119l-135 14q17 100 25 213l32 459q6 82 6 166q0 21 -2 37q103 -7 193 -7h268q122 0 180 13v-160q-67 12 -180 12h-323zM367 -176l-72 -33q-66 128 -102 213q-152 373 -152 774q0 404 152 774q32 76 102 215l72 -32q-70 -127 -101 -203q-147 -346 -147 -754
q0 -404 147 -751q31 -76 101 -203zM1755 -209l-72 33q70 127 101 203q147 347 147 751t-147 754q-31 76 -101 203l72 32q76 -151 103 -215q151 -370 151 -774t-151 -774q-32 -75 -103 -213zM330 1411v154q58 -9 133 -9h61q90 0 148 9q-15 -156 -15 -330v-1004
q0 -129 15 -231h-174q14 98 14 231v1190h-57q-76 0 -125 -10z" />
    <glyph glyph-name="uni2483" unicode="&#x2483;" 
d="M1688 1270l-144 -49q-19 71 -31 102.5t-34 60.5q-48 70 -129 70q-56 0 -104 -35.5t-79 -99.5q-46 -92 -69 -211t-35 -322q36 87 82 138q88 94 217 94q163 0 256.5 -138.5t93.5 -377.5q0 -237 -106 -385t-275 -148q-201 0 -307 205q-50 97 -72 231t-22 338
q0 409 109.5 626.5t316.5 217.5q170 0 260 -145q40 -62 72 -172zM1339 883q-61 0 -114.5 -40t-89.5 -110q-45 -91 -45 -233q0 -177 67 -285.5t174 -108.5q106 0 174 106t68 273q0 192 -60 295t-174 103zM367 -176l-72 -33q-66 128 -102 213q-152 373 -152 774q0 404 152 774
q32 76 102 215l72 -32q-70 -127 -101 -203q-147 -346 -147 -754q0 -404 147 -751q31 -76 101 -203zM1755 -209l-72 33q70 127 101 203q147 347 147 751t-147 754q-31 76 -101 203l72 32q76 -151 103 -215q151 -370 151 -774t-151 -774q-32 -75 -103 -213zM326 1411v154
q59 -9 133 -9h61q90 0 148 9q-15 -156 -15 -330v-1004q0 -129 15 -231h-174q14 98 14 231v1190h-57q-76 0 -125 -10z" />
    <glyph glyph-name="uni2484" unicode="&#x2484;" 
d="M1274 -20h-170q28 228 53.5 363t71.5 294q58 194 124 353t193 409h-442q-106 0 -189 -15v164q80 -12 191 -12h414q123 0 188 8v-137q-36 -41 -90 -156q-174 -357 -252 -667q-36 -139 -54.5 -262t-37.5 -342zM367 -176l-72 -33q-66 128 -102 213q-152 373 -152 774
q0 404 152 774q32 76 102 215l72 -32q-70 -127 -101 -203q-147 -346 -147 -754q0 -404 147 -751q31 -76 101 -203zM1755 -209l-72 33q70 127 101 203q147 347 147 751t-147 754q-31 76 -101 203l72 32q76 -151 103 -215q151 -370 151 -774t-151 -774q-32 -75 -103 -213z
M332 1391v153q52 -8 133 -8h61q96 0 148 8q-15 -156 -15 -330v-1003q0 -129 15 -231h-174q14 98 14 231v1190h-57q-76 0 -125 -10z" />
    <glyph glyph-name="uni2485" unicode="&#x2485;" 
d="M1442 823q64 -14 114 -59q134 -119 134 -352q0 -210 -104.5 -325.5t-293.5 -115.5q-187 0 -291 116t-104 325q0 158 69 271.5t181 139.5q-95 34 -148 130t-53 235q0 189 92.5 297t255.5 108q160 0 253 -108t93 -295q0 -217 -116 -318q-41 -36 -82 -49zM1292 1460
q-95 0 -151 -76t-56 -208q0 -133 56.5 -212t150.5 -79q98 0 153.5 80t55.5 221q0 123 -57.5 198.5t-151.5 75.5zM1294 750q-115 0 -181 -87.5t-66 -238.5q0 -152 63.5 -233.5t183.5 -81.5q117 0 181.5 81t64.5 230q0 152 -66 241t-180 89zM367 -176l-72 -33
q-66 128 -102 213q-152 373 -152 774q0 404 152 774q32 76 102 215l72 -32q-70 -127 -101 -203q-147 -346 -147 -754q0 -404 147 -751q31 -76 101 -203zM1755 -209l-72 33q70 127 101 203q147 347 147 751t-147 754q-31 76 -101 203l72 32q76 -151 103 -215
q151 -370 151 -774t-151 -774q-32 -75 -103 -213zM328 1411v154q59 -9 133 -9h61q90 0 148 9q-15 -156 -15 -330v-1004q0 -129 15 -231h-174q14 98 14 231v1190h-57q-76 0 -125 -10z" />
    <glyph glyph-name="uni2486" unicode="&#x2486;" 
d="M926 293l143 49q25 -105 64 -160q57 -73 141 -73q153 0 221 215q48 149 59 448q-21 -51 -36.5 -78t-42.5 -55q-89 -96 -220 -96q-162 0 -256 139t-94 377q0 245 104 388.5t281 143.5q100 0 179 -54.5t128 -158.5q97 -195 97 -569q0 -407 -108 -620.5t-314 -213.5
q-160 0 -256 125q-29 36 -47.5 76.5t-42.5 116.5zM1280 678q109 0 180.5 108.5t71.5 274.5q0 173 -69.5 284t-176.5 111q-109 0 -174 -107t-65 -286q0 -210 79 -311q25 -34 66.5 -54t87.5 -20zM367 -176l-72 -33q-66 128 -102 213q-152 373 -152 774q0 404 152 774
q32 76 102 215l72 -32q-70 -127 -101 -203q-147 -346 -147 -754q0 -404 147 -751q31 -76 101 -203zM1755 -209l-72 33q70 127 101 203q147 347 147 751t-147 754q-31 76 -101 203l72 32q76 -151 103 -215q151 -370 151 -774t-151 -774q-32 -75 -103 -213zM330 1411v154
q58 -9 133 -9h61q90 0 148 9q-15 -156 -15 -330v-1004q0 -129 15 -231h-174q14 98 14 231v1190h-57q-76 0 -125 -10z" />
    <glyph glyph-name="uni2487" unicode="&#x2487;" 
d="M805 0h-346q-103 0 -164 -6q4 18 10 92q16 209 101 383q67 133 249 338q94 107 130 189t36 186q0 126 -46 197t-128 71q-83 0 -135 -90q-42 -72 -61 -252l-146 22q22 132 44.5 203.5t60.5 128.5q85 125 235 125q149 0 233.5 -106.5t84.5 -294.5q0 -169 -72 -295
q-49 -80 -180 -232q-78 -89 -116 -140.5t-65 -106.5q-33 -70 -50 -129.5t-29 -149.5h356q115 0 164 12v-153q-63 8 -166 8zM1411 -31q-352 0 -352 803q0 412 87 612.5t265 200.5q363 0 363 -811q0 -805 -363 -805zM1413 1450q-109 0 -161 -166t-52 -516q0 -662 213 -662
q112 0 165.5 161.5t53.5 496.5q0 353 -53 519.5t-166 166.5zM367 -176l-72 -33q-66 128 -102 213q-152 373 -152 774q0 404 152 774q32 76 102 215l72 -32q-70 -127 -101 -203q-147 -346 -147 -754q0 -404 147 -751q31 -76 101 -203zM1755 -209l-72 33q70 127 101 203
q147 347 147 751t-147 754q-31 76 -101 203l72 32q76 -151 103 -215q151 -370 151 -774t-151 -774q-32 -75 -103 -213z" />
    <glyph glyph-name="uni3251" unicode="&#x3251;" 
d="M1186 1286v141q49 -8 125 -8h96q90 0 137 8q-12 -156 -12 -309v-774q0 -121 14 -213h-166q15 89 15 213v952h-86q-74 0 -123 -10zM1026 1759q200 0 381.5 -77.5t313 -209t209 -313t77.5 -381.5t-77.5 -381.5t-209 -313t-313 -209t-381.5 -77.5t-382 78t-313.5 209
t-209.5 313t-78 381t78 381t209.5 313t313.5 209t382 78zM831 131h-331q-74 0 -119 -2q133 -129 298 -196.5t345 -67.5q186 0 355.5 72.5t292 194.5t195 291t72.5 355t-72.5 355.5t-195 292t-292 194.5t-355.5 72t-355.5 -72.5t-292 -195t-195 -291.5t-72.5 -355
q0 -170 60 -326.5t175 -283.5q2 25 8 65q10 104 54 207t112 185q52 65 193 202q58 55 80 83.5t40 68.5q25 60 25 131q0 95 -48.5 153t-127.5 58q-85 0 -135 -74q-41 -57 -56 -198l-143 18q22 112 44 171t59 105q88 101 231 101q146 0 230.5 -90.5t84.5 -247.5
q0 -123 -57 -219q-26 -43 -51 -72t-82 -80q-164 -152 -225.5 -249t-81.5 -234h338q109 0 163 10v-139q-65 8 -168 8z" />
    <glyph glyph-name="uni2170" unicode="&#x2170;" 
d="M926 1556h198v-182h-198v182zM932 1104h184q-14 -101 -14 -232v-641q0 -119 14 -231h-184q14 123 14 231v641q0 131 -14 232z" />
    <glyph glyph-name="uni2171" unicode="&#x2171;" 
d="M680 1556h199v-182h-199v182zM686 1104h184q-14 -101 -14 -232v-641q0 -122 14 -231h-184q14 118 14 229v643q0 126 -14 232zM1167 1556h199v-182h-199v182zM1174 1104h184q-15 -108 -15 -232v-641q0 -114 15 -231h-184q14 118 14 229v643q0 126 -14 232z" />
    <glyph glyph-name="uni2172" unicode="&#x2172;" 
d="M457 1556h192v-182h-192v182zM463 1104h180q-14 -101 -14 -234v-639q0 -116 14 -231h-180q14 129 14 231v641q0 126 -14 232zM928 1556h192v-182h-192v182zM934 1104h180q-14 -101 -14 -234v-639q0 -116 14 -231h-180q14 129 14 231v641q0 126 -14 232zM1401 1556h192
v-182h-192v182zM1405 1104h180q-14 -101 -14 -234v-639q0 -116 14 -231h-180q14 129 14 231v641q0 131 -14 232z" />
    <glyph glyph-name="uni2173" unicode="&#x2173;" 
d="M737 1104h191q18 -95 61 -203l225 -594q23 -55 50 -139q18 66 47 139l225 594q48 119 61 203h189q-28 -51 -98 -225l-277 -691q-43 -104 -63 -188h-170q-16 74 -64 188l-276 691q-42 103 -101 225zM397 1556h193v-182h-193v182zM403 1104h181q-15 -108 -15 -234v-639
q0 -108 15 -231h-181q15 138 15 231v641q0 118 -15 232z" />
    <glyph glyph-name="uni2174" unicode="&#x2174;" 
d="M489 1104h193q17 -89 63 -201l234 -602q29 -78 45 -133q20 63 47 131l234 604q46 114 61 201h193q-24 -43 -101 -225l-287 -691q-4 -11 -12 -30.5t-11 -26.5t-8.5 -21t-7 -19t-5.5 -15.5t-5.5 -15t-4 -13t-4 -15t-3.5 -14.5t-4 -18h-162q-14 58 -67 188l-285 691
q-44 101 -103 225z" />
    <glyph glyph-name="uni2175" unicode="&#x2175;" 
d="M260 1104h191q14 -84 61 -203l225 -594q18 -44 49 -139q16 58 48 139l225 594q49 121 61 203h189q-40 -76 -99 -225l-276 -691q-50 -124 -64 -188h-170q-16 72 -63 188l-277 691q-59 140 -100 225zM1456 1556h193v-182h-193v182zM1460 1104h180q-14 -101 -14 -234v-639
q0 -116 14 -231h-180q15 138 15 231v641q0 118 -15 232z" />
    <glyph glyph-name="uni2176" unicode="&#x2176;" 
d="M188 1104h179q12 -78 55 -203l196 -588q11 -33 20.5 -65.5t14 -49t6.5 -20.5q9 31 14.5 49t12.5 39.5t14 46.5l201 588q39 120 53 203h179q-59 -140 -89 -225l-247 -691q-51 -136 -64 -188h-147q-16 65 -62 188l-248 691q-45 126 -88 225zM1202 1556h187v-182h-187v182z
M1208 1104h172q-14 -104 -14 -234v-639q0 -119 14 -231h-172q15 135 15 231v641q0 118 -15 232zM1595 1556h187v-182h-187v182zM1604 1104h172q-15 -111 -15 -234v-639q0 -111 15 -231h-172q14 126 14 231v641q0 128 -14 232z" />
    <glyph glyph-name="uni2177" unicode="&#x2177;" 
d="M743 1104h162q-24 -65 -69 -225l-193 -691q-35 -115 -43 -188h-137q-8 50 -47 188l-189 691q-38 135 -71 225h161q15 -96 45 -205l148 -586q12 -61 20 -114q10 75 19 112l153 588q27 102 41 205zM969 1556h178v-182h-178v182zM975 1104h164q-15 -92 -15 -234v-639
q0 -133 15 -231h-164q14 100 14 231v641q0 146 -14 232zM1300 1556h179v-182h-179v182zM1307 1104h163q-14 -84 -14 -234v-639q0 -125 14 -231h-163q14 100 14 231v641q0 146 -14 232zM1632 1556h178v-182h-178v182zM1638 1104h164q-14 -95 -14 -234v-639q0 -140 14 -231
h-164q15 112 15 231v641q0 130 -15 232z" />
    <glyph glyph-name="uni2178" unicode="&#x2178;" 
d="M1153 571l-252 369q-35 50 -121 164h195q32 -67 78 -139l194 -289l195 289q52 79 76 139h192q-80 -109 -121 -170l-250 -363l263 -374q57 -84 141 -197h-197q-47 90 -90 154l-211 313l-219 -332q-40 -61 -78 -135h-198q79 102 131 178zM412 1556h192v-182h-192v182z
M418 1104h180q-14 -101 -14 -234v-639q0 -116 14 -231h-180q14 129 14 231v641q0 126 -14 232z" />
    <glyph glyph-name="uni2179" unicode="&#x2179;" 
d="M1536 0h-203q-37 67 -92 152l-217 313l-227 -332q-30 -40 -80 -133h-203q76 95 133 178l285 393l-264 369l-123 164h200q26 -60 80 -137l201 -289l199 289q55 80 80 137h196q-25 -36 -67 -92t-58 -78l-258 -363l271 -376q20 -27 147 -195z" />
    <glyph glyph-name="uni3252" unicode="&#x3252;" 
d="M1024 1759q200 0 381.5 -77.5t313 -209t209 -313t77.5 -381.5t-77.5 -381.5t-209 -313t-313 -209t-381.5 -77.5q-199 0 -381 78t-313 209t-209 313t-78 381t78 381t209 313t313 209t381 78zM813 133h-319q-66 0 -117 -2q132 -130 298.5 -199t348.5 -69t347 68t298 198
q-78 4 -133 4h-317q-69 0 -160 -6q2 26 14 111q27 227 191 415q21 26 90 99q53 53 92 94q58 60 80 96q43 73 43 168q0 97 -48 155t-128 58q-89 0 -138 -76q-21 -31 -32.5 -73.5t-22.5 -124.5l-135 18q32 195 112 286t218 91q143 0 225 -91t82 -249q0 -109 -41.5 -190
t-147.5 -181q-164 -157 -223.5 -250.5t-81.5 -228.5h332q109 0 160 10v-104q239 263 239 618q0 186 -72.5 355t-194.5 291.5t-291 195t-355 72.5t-355.5 -72.5t-292 -195t-195 -291.5t-72.5 -355q0 -343 229 -608q1 6 1.5 11t1 9.5l2 18t3.5 29.5q27 227 191 415
q47 54 92 99q51 53 90 94q58 60 80 96q43 73 43 168q0 97 -48 155t-128 58q-89 0 -138 -76q-37 -59 -53 -198l-137 18q34 195 113 286t217 91q142 0 224.5 -90.5t82.5 -247.5q0 -110 -41 -191t-148 -182q-164 -157 -223.5 -250.5t-79.5 -228.5h332q109 0 160 10v-139
q-63 8 -164 8z" />
    <glyph glyph-name="uni3253" unicode="&#x3253;" 
d="M1042 418l136 35q14 -68 28.5 -103t40.5 -63q55 -58 137 -58q95 0 152 72.5t57 194.5q0 126 -59 192t-172 66q-26 0 -94 -9v134q61 -9 84 -9q102 0 156.5 63t54.5 181q0 101 -45 158t-127 57q-77 0 -117 -46.5t-60 -158.5l-133 29q19 79 36.5 120t47.5 77q82 98 232 98
q140 0 218.5 -86t78.5 -238q0 -174 -103 -260q-45 -37 -106 -49q48 -5 77 -15.5t58 -35.5q109 -86 109 -277q0 -175 -92.5 -276.5t-250.5 -101.5q-152 0 -239 90q-38 38 -59.5 84t-45.5 135zM1024 1759q200 0 381.5 -77.5t313 -209t209 -313t77.5 -381.5t-77.5 -381.5
t-209 -313t-313 -209t-381.5 -77.5q-199 0 -381 78t-313 209t-209 313t-78 381t78 381t209 313t313 209t381 78zM817 133h-323q-68 0 -117 -2q132 -130 298.5 -199t348.5 -69q186 0 355.5 72.5t292 195t195 292t72.5 355.5t-72.5 355t-195 291.5t-292 195t-355.5 72.5
t-355 -72.5t-291 -195t-194.5 -291.5t-72.5 -355q0 -343 229 -608q1 6 1.5 11t1 9.5l2 18t3.5 29.5q24 223 191 415q21 26 90 99q53 53 92 94q58 60 80 96q43 73 43 168q0 97 -48 155t-128 58q-89 0 -138 -76q-37 -54 -53 -198l-137 18q34 195 113 286t217 91
q142 0 224.5 -90.5t82.5 -247.5q0 -110 -41 -191t-148 -182q-164 -157 -223.5 -250.5t-81.5 -228.5h338q109 0 160 10v-139q-63 8 -164 8z" />
    <glyph glyph-name="uni3254" unicode="&#x3254;" 
d="M1446 1421h141q-8 -117 -8 -286v-560h37q70 0 123 9v-133q-44 6 -125 6h-35v-138q0 -110 10 -186h-141q10 85 10 184v140h-317q-83 0 -162 -6v129q38 63 76 129l307 538q31 53 84 174zM1458 575v424q0 116 6 215q-26 -64 -78 -155l-270 -484h342zM1024 1759
q200 0 381.5 -77.5t313 -209t209 -313t77.5 -381.5t-77.5 -381.5t-209 -313t-313 -209t-381.5 -77.5q-199 0 -381 78t-313 209t-209 313t-78 381t78 381t209 313t313 209t381 78zM817 133h-323q-68 0 -117 -2q132 -130 298.5 -199t348.5 -69q186 0 355.5 72.5t292 195
t195 292t72.5 355.5t-72.5 355t-195 291.5t-292 195t-355.5 72.5t-355 -72.5t-291 -195t-194.5 -291.5t-72.5 -355q0 -343 229 -608q1 6 1.5 11t1 9.5l2 18t3.5 29.5q24 223 191 415q21 26 90 99q53 53 92 94q58 60 80 96q43 73 43 168q0 97 -48 155t-128 58q-89 0 -138 -76
q-37 -54 -53 -198l-137 18q34 195 113 286t217 91q142 0 224.5 -90.5t82.5 -247.5q0 -110 -41 -191t-148 -182q-164 -157 -223.5 -250.5t-81.5 -228.5h338q109 0 160 10v-139q-63 8 -164 8z" />
    <glyph glyph-name="uni3255" unicode="&#x3255;" 
d="M1253 1305l-26 -365q0 -27 -10 -76q78 117 200 117q74 0 139 -42.5t105 -115.5q55 -107 55 -260q0 -207 -91.5 -329.5t-246.5 -122.5q-145 0 -227 98q-46 56 -90 180l131 39q12 -55 24.5 -83.5t36.5 -55.5q56 -56 125 -56q92 0 147.5 87.5t55.5 232.5q0 143 -50 225
t-138 82q-89 0 -148 -78q-23 -32 -39 -86l-125 9q16 100 21 165l26 400q1 14 3 51t2 53q0 27 -5 58q64 -9 138 -9h215q118 0 174 11v-140q-75 11 -174 11h-228zM1026 1759q200 0 381.5 -77.5t313 -209t209 -313t77.5 -381.5t-77.5 -381.5t-209 -313t-313 -209t-381.5 -77.5
t-382 78t-313.5 209t-209.5 313t-78 381t78 381t209.5 313t313.5 209t382 78zM819 133h-323q-64 0 -117 -2q134 -131 299 -199.5t348 -68.5q186 0 356 72.5t292.5 195t195 292t72.5 355.5t-72.5 355t-195 291.5t-292.5 195t-356 72.5t-355.5 -72.5t-292 -195t-195 -291.5
t-72.5 -355q0 -344 231 -608q1 6 1.5 11t1 9.5l2 18t3.5 29.5q24 223 191 415q21 26 90 99q53 53 92 94q58 60 80 96q43 73 43 168q0 97 -48 155t-128 58q-89 0 -138 -76q-37 -54 -53 -198l-137 18q34 195 113 286t217 91q142 0 224.5 -90.5t82.5 -247.5
q0 -111 -40.5 -191.5t-147.5 -181.5q-165 -157 -224.5 -250.5t-81.5 -228.5h338q109 0 160 10v-139q-63 8 -164 8z" />
    <glyph glyph-name="uni3256" unicode="&#x3256;" 
d="M1724 1182l-131 -39q-25 98 -65.5 143t-104.5 45q-100 0 -161 -137q-32 -75 -48 -169.5t-22 -244.5q18 45 32 69t38 48q76 82 184 82q141 0 221 -115.5t80 -320.5q0 -193 -93.5 -313.5t-242.5 -120.5q-168 0 -257 159t-89 461q0 328 80 502q100 217 287 217
q129 0 206 -92q27 -32 44.5 -67.5t41.5 -106.5zM1421 864q-92 0 -152.5 -90t-60.5 -225q0 -139 58.5 -229.5t148.5 -90.5q91 0 146 88.5t55 235.5q0 146 -52 228.5t-143 82.5zM1026 1759q200 0 381.5 -77.5t313 -209t209 -313t77.5 -381.5t-77.5 -381.5t-209 -313t-313 -209
t-381.5 -77.5t-382 78t-313.5 209t-209.5 313t-78 381t78 381t209.5 313t313.5 209t382 78zM817 133h-323q-72 0 -115 -2q130 -130 297 -199t350 -69q186 0 356 72.5t292.5 195t195 292t72.5 355.5t-72.5 355t-195 291.5t-292.5 195t-356 72.5t-355.5 -72.5t-292 -195
t-195 -291.5t-72.5 -355q0 -344 229 -606q1 9 8 66q24 223 191 415q21 26 90 99q53 53 92 94q58 60 80 96q43 73 43 168q0 97 -48 155t-128 58q-89 0 -138 -76q-37 -54 -53 -198l-137 18q34 195 113 286t217 91q142 0 224.5 -90.5t82.5 -247.5q0 -110 -41 -191t-148 -182
q-164 -157 -223.5 -250.5t-81.5 -228.5h338q109 0 160 10v-139q-63 8 -164 8z" />
    <glyph glyph-name="uni3257" unicode="&#x3257;" 
d="M1024 1759q201 0 383 -77.5t313.5 -209t209 -313t77.5 -381.5t-78 -382t-209.5 -313t-313.5 -208.5t-382 -77.5q-199 0 -381 78t-313 209t-209 313t-78 381t78 381t209 313t313 209t381 78zM1673 1423v-116q-39 -51 -100.5 -192t-112.5 -290q-104 -312 -131 -692h-149
q31 311 112 580t238 587h-332q-90 0 -154 -12v144q65 -11 156 -11h316q94 0 153 6q-132 129 -297 197t-348 68q-186 0 -355 -72.5t-291 -195t-194.5 -291.5t-72.5 -355q0 -346 231 -610q4 36 8 70q24 223 191 415q21 26 90 99q53 53 92 94q63 68 80 96q43 73 43 168
q0 97 -48 155t-128 58q-87 0 -138 -76q-37 -54 -53 -198l-137 18q34 195 113 286t217 91q142 0 224.5 -90.5t82.5 -247.5q0 -111 -40.5 -191.5t-147.5 -181.5q-165 -157 -224.5 -250.5t-81.5 -228.5h338q109 0 160 10v-139q-63 8 -164 8h-323q-76 0 -119 -2
q132 -130 298.5 -199t348.5 -69q186 0 355.5 72.5t292 195t195 292t72.5 355.5q0 373 -266 645z" />
    <glyph glyph-name="uni3258" unicode="&#x3258;" 
d="M1264 811q-51 18 -76 41q-101 87 -101 260q0 154 83 243t227 89q143 0 226 -89t83 -241q0 -173 -98 -262q-32 -25 -76 -41q52 -17 79.5 -34.5t55.5 -51.5q82 -98 82 -250q0 -169 -95 -265.5t-259 -96.5q-163 0 -255.5 95.5t-92.5 264.5q0 152 79 250q30 34 58 52.5
t80 35.5zM1399 1327q-85 0 -133.5 -60.5t-48.5 -166.5q0 -109 48 -171.5t132 -62.5t132 62.5t48 171.5q0 104 -48 165.5t-130 61.5zM1399 752q-100 0 -157.5 -71.5t-57.5 -195.5q0 -123 55 -188.5t158 -65.5q104 0 159.5 66t55.5 190q0 123 -56.5 194t-156.5 71zM1026 1759
q200 0 381.5 -77.5t313 -209t209 -313t77.5 -381.5t-77.5 -381.5t-209 -313t-313 -209t-381.5 -77.5t-382 78t-313.5 209t-209.5 313t-78 381t78 381t209.5 313t313.5 209t382 78zM819 133h-323q-64 0 -117 -2q134 -131 299 -199.5t348 -68.5q186 0 356 72.5t292.5 195
t195 292t72.5 355.5t-72.5 355t-195 291.5t-292.5 195t-356 72.5t-355.5 -72.5t-292 -195t-195 -291.5t-72.5 -355q0 -344 231 -608q1 6 1.5 11t1 9.5l2 18t3.5 29.5q24 223 191 415q21 26 90 99q53 53 92 94q58 60 80 96q43 73 43 168q0 97 -48 155t-128 58q-89 0 -138 -76
q-37 -54 -53 -198l-137 18q34 195 113 286t217 91q142 0 224.5 -90.5t82.5 -247.5q0 -111 -40.5 -191.5t-147.5 -181.5q-165 -157 -224.5 -250.5t-81.5 -228.5h338q109 0 160 10v-139q-63 8 -164 8z" />
    <glyph glyph-name="uni3259" unicode="&#x3259;" 
d="M1092 373l131 43q14 -54 24 -80t27 -49q44 -62 119 -62q108 0 166 131q54 130 65 414q-24 -59 -49 -94t-66 -62q-61 -39 -137 -39q-138 0 -220.5 114.5t-82.5 307.5q0 206 90.5 327.5t245.5 121.5q186 0 281 -207q63 -144 63 -457q0 -326 -92.5 -498.5t-267.5 -172.5
q-137 0 -209 90q-27 32 -45 67t-43 105zM1393 690q92 0 152.5 89.5t60.5 226.5q0 141 -58 232t-147 91q-99 0 -156 -104q-20 -35 -32.5 -96.5t-12.5 -124.5q0 -147 51 -230.5t142 -83.5zM1024 1759q200 0 381.5 -77.5t313 -209t209 -313t77.5 -381.5t-77.5 -381.5t-209 -313
t-313 -209t-381.5 -77.5q-199 0 -381 78t-313 209t-209 313t-78 381t78 381t209 313t313 209t381 78zM817 133h-323q-68 0 -117 -2q132 -130 298.5 -199t348.5 -69q186 0 355.5 72.5t292 195t195 292t72.5 355.5t-72.5 355t-195 291.5t-292 195t-355.5 72.5t-355 -72.5
t-291 -195t-194.5 -291.5t-72.5 -355q0 -343 229 -608q1 6 1.5 11t1 9.5l2 18t3.5 29.5q24 223 191 415q21 26 90 99q53 53 92 94q58 60 80 96q43 73 43 168q0 97 -48 155t-128 58q-89 0 -138 -76q-37 -54 -53 -198l-137 18q34 195 113 286t217 91q142 0 224.5 -90.5
t82.5 -247.5q0 -110 -41 -191t-148 -182q-164 -157 -223.5 -250.5t-81.5 -228.5h338q109 0 160 10v-139q-63 8 -164 8z" />
    <glyph glyph-name="uni325A" unicode="&#x325a;" 
d="M293 418l135 33q13 -66 28.5 -101t41.5 -63q55 -58 137 -58q95 0 152 72.5t57 194.5q0 124 -60 191t-170 67q-38 0 -96 -9v134q61 -9 84 -9q101 0 156 63.5t55 180.5q0 101 -45 158t-127 57q-76 0 -116 -46t-60 -159l-133 27q19 80 36.5 121.5t47.5 77.5q82 98 231 98
q138 0 217.5 -86.5t79.5 -237.5q0 -177 -102 -262q-25 -20 -47 -29.5t-60 -17.5q85 -8 135 -51q109 -86 109 -279q0 -175 -92 -275.5t-250 -100.5q-150 0 -240 90q-37 37 -59 83.5t-45 135.5zM1409 111q-172 0 -261 169.5t-89 499.5q0 324 89 494t261 170t263 -171.5
t91 -496.5q0 -324 -90.5 -494.5t-263.5 -170.5zM1409 1321q-213 0 -213 -543q0 -542 211 -542q219 0 219 544q0 355 -90 471q-25 32 -59 51t-68 19zM1024 1761q200 0 381.5 -77.5t313 -209t209 -313t77.5 -381.5t-77.5 -382t-208.5 -313.5t-313 -209.5t-382 -78
q-199 0 -381 78t-313 209.5t-209 313.5t-78 382q0 199 78 381t209 313t313 209t381 78zM1024 1694q-186 0 -355 -72.5t-291 -195t-194.5 -291.5t-72.5 -355t72.5 -355.5t194.5 -292t291 -195t355 -72.5t355 72.5t291 195t194.5 292t72.5 355.5t-72.5 355t-194.5 291.5
t-291 195t-355 72.5z" />
    <glyph glyph-name="uni325B" unicode="&#x325b;" 
d="M328 418l139 33q13 -67 28.5 -102.5t41.5 -63.5q58 -58 141 -58q95 0 153 73t58 194q0 126 -61 192t-177 66q-35 0 -94 -9v136q51 -7 90 -7q101 0 156 62.5t55 179.5q0 101 -46.5 158t-129.5 57q-76 0 -117 -47t-61 -158l-137 27q19 77 37 118.5t49 80.5q86 98 237 98
q142 0 222.5 -86t80.5 -238q0 -179 -104 -260q-25 -21 -48.5 -31.5t-62.5 -17.5q86 -5 142 -51q108 -85 108 -279q0 -177 -93 -278t-255 -101q-153 0 -244 91q-39 38 -62 84.5t-46 136.5zM1165 1288v142q56 -9 125 -9h96q86 0 138 9q-13 -159 -13 -310v-774q0 -122 15 -213
h-166q14 88 14 213v952h-86q-74 0 -123 -10zM1024 1761q200 0 381.5 -77.5t313 -209t209 -313t77.5 -381.5t-77.5 -382t-208.5 -313.5t-313 -209.5t-382 -78q-199 0 -381 78t-313 209.5t-209 313.5t-78 382q0 199 78 381t209 313t313 209t381 78zM1024 1694
q-186 0 -355 -72.5t-291 -195t-194.5 -291.5t-72.5 -355t72.5 -355.5t194.5 -292t291 -195t355 -72.5t355 72.5t291 195t194.5 292t72.5 355.5t-72.5 355t-194.5 291.5t-291 195t-355 72.5z" />
    <glyph glyph-name="uni249C" unicode="&#x249c;" 
d="M367 -176l-72 -33q-66 128 -102 213q-152 373 -152 774q0 404 152 774q32 76 102 215l72 -32q-70 -127 -101 -203q-147 -346 -147 -754q0 -404 147 -751q31 -76 101 -203zM1755 -209l-72 33q70 127 101 203q147 347 147 751t-147 754q-31 76 -101 203l72 32
q76 -151 103 -215q151 -370 151 -774t-151 -774q-32 -75 -103 -213zM1290 209v145q-61 -55 -98.5 -80t-89.5 -45q-106 -41 -213 -41q-169 0 -266 83t-97 229q0 123 75.5 209.5t217.5 126.5q92 27 188 38t283 15v119q0 211 -258 211q-168 0 -254 -89q-38 -40 -63 -118
l-160 35q27 71 51.5 109.5t63.5 72.5q126 117 360 117q202 0 306 -85t104 -251v-576q0 -116 16 -225h-166zM1290 635v133q-184 -5 -284 -17.5t-168 -41.5q-156 -65 -156 -209q0 -85 59 -135t158 -50q89 0 178.5 39.5t149.5 104.5q35 40 49 78t14 98z" />
    <glyph glyph-name="uni249D" unicode="&#x249d;" 
d="M367 -176l-72 -33q-66 128 -102 213q-152 373 -152 774q0 404 152 774q32 76 102 215l72 -32q-70 -127 -101 -203q-147 -346 -147 -754q0 -404 147 -751q31 -76 101 -203zM1755 -209l-72 33q70 127 101 203q147 347 147 751t-147 754q-31 76 -101 203l72 32
q76 -151 103 -215q151 -370 151 -774t-151 -774q-32 -75 -103 -213zM688 16h-164q15 117 15 236v1089q0 112 -15 232h181q-15 -114 -15 -234v-276q0 -74 -8 -145q142 225 422 225q236 0 370 -151.5t134 -418.5q0 -270 -136.5 -423.5t-375.5 -153.5q-97 0 -172.5 26
t-145.5 84q-32 25 -50.5 46.5t-45.5 60.5q6 -59 6 -82v-115zM1450 575q0 207 -94 322t-264 115q-181 0 -291.5 -121t-110.5 -318q0 -198 109 -321t286 -123q172 0 268.5 117.5t96.5 328.5z" />
    <glyph glyph-name="uni249E" unicode="&#x249e;" 
d="M367 -176l-72 -33q-66 128 -102 213q-152 373 -152 774q0 404 152 774q32 76 102 215l72 -32q-70 -127 -101 -203q-147 -346 -147 -754q0 -404 147 -751q31 -76 101 -203zM1755 -209l-72 33q70 127 101 203q147 347 147 751t-147 754q-31 76 -101 203l72 32
q76 -151 103 -215q151 -370 151 -774t-151 -774q-32 -75 -103 -213zM1489 1022l-150 -47q-43 120 -119 177.5t-190 57.5q-169 0 -268.5 -121.5t-99.5 -328.5q0 -202 102 -322.5t274 -120.5q89 0 158.5 34.5t110.5 97.5q25 40 45 104l151 -41q-39 -101 -84 -158
q-134 -172 -387 -172q-241 0 -384.5 155.5t-143.5 418.5q0 265 141.5 425t376.5 160q260 0 395 -188q35 -44 72 -131z" />
    <glyph glyph-name="uni249F" unicode="&#x249f;" 
d="M367 -176l-72 -33q-66 128 -102 213q-152 373 -152 774q0 404 152 774q32 76 102 215l72 -32q-70 -127 -101 -203q-147 -346 -147 -754q0 -404 147 -751q31 -76 101 -203zM1755 -209l-72 33q70 127 101 203q147 347 147 751t-147 754q-31 76 -101 203l72 32
q76 -151 103 -215q151 -370 151 -774t-151 -774q-32 -75 -103 -213zM1341 16v101q0 39 7 100q-141 -221 -414 -221q-236 0 -372 153t-136 420q0 262 137 418t367 156q284 0 418 -217l-2 30q-5 54 -5 109v274q0 125 -14 234h180q-14 -115 -14 -232v-1089q0 -124 14 -236h-166
zM946 1010q-167 0 -262.5 -116.5t-95.5 -320.5q0 -211 84 -319q97 -123 274 -123q180 0 286.5 120.5t106.5 323.5q0 102 -29.5 187t-84.5 139q-112 109 -279 109z" />
    <glyph glyph-name="uni24A0" unicode="&#x24a0;" 
d="M367 -176l-72 -33q-66 128 -102 213q-152 373 -152 774q0 404 152 774q32 76 102 215l72 -32q-70 -127 -101 -203q-147 -346 -147 -754q0 -404 147 -751q31 -76 101 -203zM1755 -209l-72 33q70 127 101 203q147 347 147 751t-147 754q-31 76 -101 203l72 32
q76 -151 103 -215q151 -370 151 -774t-151 -774q-32 -75 -103 -213zM1538 737h-862q4 -102 23 -166t61 -120q103 -140 287 -140q253 0 337 238l146 -55q-31 -64 -54.5 -99t-58.5 -71q-147 -144 -373 -144q-239 0 -380.5 157t-141.5 423q0 264 139 422.5t369 158.5
q198 0 331.5 -119.5t164.5 -326.5q10 -98 12 -158zM682 866h694q-9 86 -34.5 145t-75.5 109q-95 92 -240 92q-95 0 -170.5 -46t-122.5 -134q-36 -68 -51 -166z" />
    <glyph glyph-name="uni24A1" unicode="&#x24a1;" 
d="M367 -176l-72 -33q-66 128 -102 213q-152 373 -152 774q0 404 152 774q32 76 102 215l72 -32q-70 -127 -101 -203q-147 -346 -147 -754q0 -404 147 -751q31 -76 101 -203zM1755 -209l-72 33q70 127 101 203q147 347 147 751t-147 754q-31 76 -101 203l72 32
q76 -151 103 -215q151 -370 151 -774t-151 -774q-32 -75 -103 -213zM895 963h-84q-84 0 -186 -13v156q83 -12 186 -12h84v120q0 94 14 150t49 100q37 48 105 74.5t154 26.5q112 0 217 -41l-43 -138q-80 48 -170 48q-99 0 -140 -56q-17 -25 -23.5 -62t-6.5 -110v-112h102
q126 0 217 12v-156q-91 13 -217 13h-102v-744q0 -125 14 -231h-184q14 106 14 231v744z" />
    <glyph glyph-name="uni24A2" unicode="&#x24a2;" 
d="M367 -176l-72 -33q-66 128 -102 213q-152 373 -152 774q0 404 152 774q32 76 102 215l72 -32q-70 -127 -101 -203q-147 -346 -147 -754q0 -404 147 -751q31 -76 101 -203zM1755 -209l-72 33q70 127 101 203q147 347 147 751t-147 754q-31 76 -101 203l72 32
q76 -151 103 -215q151 -370 151 -774t-151 -774q-32 -75 -103 -213zM510 150l131 90q40 -51 66 -72q110 -96 274 -96q134 0 225 57.5t131 167.5q17 45 25 108.5t14 194.5q-45 -76 -90 -113q-118 -106 -317 -106q-232 0 -369 151t-137 406q0 262 140 416.5t378 154.5
q269 0 395 -215q-4 70 -4 78v117h162q-14 -112 -14 -229v-736q0 -151 -28 -252.5t-89 -173.5q-64 -75 -175.5 -115t-252.5 -40q-152 0 -258 47t-207 160zM623 940q0 -200 95 -315t259 -115q175 0 282 123t107 323q0 193 -102.5 308.5t-274.5 115.5q-170 0 -268 -118
t-98 -322z" />
    <glyph glyph-name="uni24A3" unicode="&#x24a3;" 
d="M367 -176l-72 -33q-66 128 -102 213q-152 373 -152 774q0 404 152 774q32 76 102 215l72 -32q-70 -127 -101 -203q-147 -346 -147 -754q0 -404 147 -751q31 -76 101 -203zM1755 -209l-72 33q70 127 101 203q147 347 147 751t-147 754q-31 76 -101 203l72 32
q76 -151 103 -215q151 -370 151 -774t-151 -774q-32 -75 -103 -213zM741 16h-182q14 104 14 232v1093q0 126 -14 232h182q-16 -101 -16 -232v-348q0 -49 -6 -102q29 51 51.5 79t60.5 60q129 111 306 111q180 0 281.5 -100.5t101.5 -280.5v-514q0 -124 14 -230h-184
q14 95 14 232v483q0 133 -64 204t-184 71q-167 0 -287 -150q-43 -54 -65.5 -102t-36.5 -113v-393q0 -120 14 -232z" />
    <glyph glyph-name="uni24A4" unicode="&#x24a4;" 
d="M367 -176l-72 -33q-66 128 -102 213q-152 373 -152 774q0 404 152 774q32 76 102 215l72 -32q-70 -127 -101 -203q-147 -346 -147 -754q0 -404 147 -751q31 -76 101 -203zM1755 -209l-72 33q70 127 101 203q147 347 147 751t-147 754q-31 76 -101 203l72 32
q76 -151 103 -215q151 -370 151 -774t-151 -774q-32 -75 -103 -213zM922 1554h198v-182h-198v182zM926 1102h184q-14 -101 -14 -232v-641q0 -117 14 -229h-184q14 123 14 229v641q0 131 -14 232z" />
    <glyph glyph-name="uni24A5" unicode="&#x24a5;" 
d="M367 -176l-72 -33q-66 128 -102 213q-152 373 -152 774q0 404 152 774q32 76 102 215l72 -32q-70 -127 -101 -203q-147 -346 -147 -754q0 -404 147 -751q31 -76 101 -203zM1755 -209l-72 33q70 127 101 203q147 347 147 751t-147 754q-31 76 -101 203l72 32
q76 -151 103 -215q151 -370 151 -774t-151 -774q-32 -75 -103 -213zM985 1706h199v-184h-199v184zM993 1253h185q-15 -108 -15 -231v-860q0 -89 -18.5 -145.5t-59.5 -96.5q-79 -70 -227 -70q-100 0 -168 33.5t-137 116.5l141 92q40 -59 78.5 -82.5t93.5 -23.5q77 0 111 43
q31 42 31 147v846q0 123 -15 231z" />
    <glyph glyph-name="uni24A6" unicode="&#x24a6;" 
d="M367 -176l-72 -33q-66 128 -102 213q-152 373 -152 774q0 404 152 774q32 76 102 215l72 -32q-70 -127 -101 -203q-147 -346 -147 -754q0 -404 147 -751q31 -76 101 -203zM1755 -209l-72 33q70 127 101 203q147 347 147 751t-147 754q-31 76 -101 203l72 32
q76 -151 103 -215q151 -370 151 -774t-151 -774q-32 -75 -103 -213zM596 1573h182q-14 -104 -14 -230v-743l371 361q102 98 145 161h244q-4 -4 -84 -75q-11 -10 -36 -34t-38 -36l-33 -33l-284 -266l346 -447q92 -118 118 -149.5t60 -65.5h-234q-18 39 -37 68t-92 127
l-272 375l-174 -168v-172q0 -129 14 -230h-182q14 104 14 232v1095q0 126 -14 230z" />
    <glyph glyph-name="uni24A7" unicode="&#x24a7;" 
d="M367 -176l-72 -33q-66 128 -102 213q-152 373 -152 774q0 404 152 774q32 76 102 215l72 -32q-70 -127 -101 -203q-147 -346 -147 -754q0 -404 147 -751q31 -76 101 -203zM1755 -209l-72 33q70 127 101 203q147 347 147 751t-147 754q-31 76 -101 203l72 32
q76 -151 103 -215q151 -370 151 -774t-151 -774q-32 -75 -103 -213zM924 1554h184q-14 -104 -14 -231v-1096q0 -112 14 -227h-184q14 104 14 227v1098q0 125 -14 229z" />
    <glyph glyph-name="uni24A8" unicode="&#x24a8;" 
d="M522 1229l-4 -58q-4 -20 -6 -32q36 69 72 102q94 94 225 94q146 0 219 -102q30 -40 49 -113q44 80 88 121q53 50 107 72t123 22q155 0 230 -95t75 -292v-510q0 -143 12 -229h-172q12 86 12 231v482q0 94 -10.5 144.5t-36.5 82.5q-43 55 -137 55q-104 0 -181 -107.5
t-77 -254.5v-404q0 -124 12 -229h-172q13 96 13 231v482q0 282 -181 282q-126 0 -200 -135q-27 -48 -43.5 -110t-16.5 -117v-402q0 -104 13 -231h-173q13 120 13 231v641q0 136 -13 232h160v-84zM367 -176l-72 -33q-66 128 -102 213q-152 373 -152 774q0 404 152 774
q32 76 102 215l72 -32q-70 -127 -101 -203q-147 -346 -147 -754q0 -404 147 -751q31 -76 101 -203zM1755 -209l-72 33q70 127 101 203q147 347 147 751t-147 754q-31 76 -101 203l72 32q76 -151 103 -215q151 -370 151 -774t-151 -774q-32 -75 -103 -213z" />
    <glyph glyph-name="uni24A9" unicode="&#x24a9;" 
d="M367 -176l-72 -33q-66 128 -102 213q-152 373 -152 774q0 404 152 774q32 76 102 215l72 -32q-70 -127 -101 -203q-147 -346 -147 -754q0 -404 147 -751q31 -76 101 -203zM1755 -209l-72 33q70 127 101 203q147 347 147 751t-147 754q-31 76 -101 203l72 32
q76 -151 103 -215q151 -370 151 -774t-151 -774q-32 -75 -103 -213zM731 209h-184q16 104 16 231v641q0 123 -16 232h170v-139q0 -42 -6 -89q142 248 413 248q227 0 328 -153q57 -86 57 -236v-506q0 -127 15 -229h-185q15 120 15 231v478q0 138 -64 210t-186 72
q-167 0 -293 -162q-41 -54 -61.5 -98t-32.5 -104v-396q0 -119 14 -231z" />
    <glyph glyph-name="uni24AA" unicode="&#x24aa;" 
d="M367 -176l-72 -33q-66 128 -102 213q-152 373 -152 774q0 404 152 774q32 76 102 215l72 -32q-70 -127 -101 -203q-147 -346 -147 -754q0 -404 147 -751q31 -76 101 -203zM1755 -209l-72 33q70 127 101 203q147 347 147 751t-147 754q-31 76 -101 203l72 32
q76 -151 103 -215q151 -370 151 -774t-151 -774q-32 -75 -103 -213zM1024 182q-252 0 -400.5 156.5t-148.5 421.5t148 422t397 157q250 0 397.5 -156.5t147.5 -420.5q0 -263 -147.5 -421.5t-393.5 -158.5zM1024 1210q-181 0 -286 -119.5t-105 -326.5q0 -209 103.5 -329
t283.5 -120q181 0 284 119.5t103 327.5q0 207 -103 327.5t-280 120.5z" />
    <glyph glyph-name="uni24AB" unicode="&#x24ab;" 
d="M367 -176l-72 -33q-66 128 -102 213q-152 373 -152 774q0 404 152 774q32 76 102 215l72 -32q-70 -127 -101 -203q-147 -346 -147 -754q0 -404 147 -751q31 -76 101 -203zM1755 -209l-72 33q70 127 101 203q147 347 147 751t-147 754q-31 76 -101 203l72 32
q76 -151 103 -215q151 -370 151 -774t-151 -774q-32 -75 -103 -213zM711 -45h-181q15 120 15 229v1069q0 119 -15 236h164v-117q0 -32 -6 -84q140 221 418 221q237 0 372.5 -152t135.5 -419q0 -261 -137 -416t-367 -155q-276 0 -422 217q8 -76 8 -144v-254q0 -117 15 -231z
M1096 498q167 0 262.5 117t95.5 321q0 211 -94 325.5t-266 114.5q-177 0 -286.5 -121t-109.5 -319q0 -100 31 -187.5t86 -142.5q54 -51 128 -79.5t153 -28.5z" />
    <glyph glyph-name="uni24AC" unicode="&#x24ac;" 
d="M367 -176l-72 -33q-66 128 -102 213q-152 373 -152 774q0 404 152 774q32 76 102 215l72 -32q-70 -127 -101 -203q-147 -346 -147 -754q0 -404 147 -751q31 -76 101 -203zM1755 -209l-72 33q70 127 101 203q147 347 147 751t-147 754q-31 76 -101 203l72 32
q76 -151 103 -215q151 -370 151 -774t-151 -774q-32 -75 -103 -213zM1513 -45h-180q15 117 15 231v254q0 73 8 144q-146 -217 -416 -217q-236 0 -373 152.5t-137 416.5q0 262 137 417.5t369 155.5q282 0 420 -221q-6 53 -6 84v117h163q-14 -106 -14 -236v-1069
q0 -123 14 -229zM590 936q0 -204 95.5 -320t262.5 -116q180 0 289 120.5t109 321.5q0 197 -106.5 315.5t-283.5 118.5q-172 0 -269 -116.5t-97 -323.5z" />
    <glyph glyph-name="uni24AD" unicode="&#x24ad;" 
d="M367 -176l-72 -33q-66 128 -102 213q-152 373 -152 774q0 404 152 774q32 76 102 215l72 -32q-70 -127 -101 -203q-147 -346 -147 -754q0 -404 147 -751q31 -76 101 -203zM1755 -209l-72 33q70 127 101 203q147 347 147 751t-147 754q-31 76 -101 203l72 32
q76 -151 103 -215q151 -370 151 -774t-151 -774q-32 -75 -103 -213zM1501 1313l-45 -158q-97 31 -166 31q-159 0 -252 -125q-37 -47 -53 -91.5t-22 -113.5v-418q0 -117 14 -229h-184q14 132 14 231v641q0 128 -14 232h170v-117q0 -47 -2 -61q53 85 112 125q58 38 115 54.5
t131 16.5q71 0 182 -18z" />
    <glyph glyph-name="uni24AE" unicode="&#x24ae;" 
d="M367 -176l-72 -33q-66 128 -102 213q-152 373 -152 774q0 404 152 774q32 76 102 215l72 -32q-70 -127 -101 -203q-147 -346 -147 -754q0 -404 147 -751q31 -76 101 -203zM1755 -209l-72 33q70 127 101 203q147 347 147 751t-147 754q-31 76 -101 203l72 32
q76 -151 103 -215q151 -370 151 -774t-151 -774q-32 -75 -103 -213zM557 508l168 29q10 -56 26 -89t46 -61q81 -72 237 -72q134 0 212.5 53t78.5 144q0 87 -63 127q-36 23 -81.5 37t-160.5 37q-123 26 -187 48.5t-116 57.5q-111 76 -111 215q0 114 88 199q112 106 322 106
q209 0 319 -98q40 -34 64.5 -75t44.5 -111l-162 -27q-16 74 -49 109q-74 77 -215 77q-113 0 -184.5 -51t-71.5 -133q0 -74 69 -112q59 -34 228 -70q147 -33 212.5 -57t112.5 -60q47 -38 73 -94t26 -119q0 -154 -122 -243t-333 -89q-140 0 -244 41t-161 119
q-24 33 -37.5 66.5t-28.5 95.5z" />
    <glyph glyph-name="uni24AF" unicode="&#x24af;" 
d="M367 -176l-72 -33q-66 128 -102 213q-152 373 -152 774q0 404 152 774q32 76 102 215l72 -32q-70 -127 -101 -203q-147 -346 -147 -754q0 -404 147 -751q31 -76 101 -203zM1755 -209l-72 33q70 127 101 203q147 347 147 751t-147 754q-31 76 -101 203l72 32
q76 -151 103 -215q151 -370 151 -774t-151 -774q-32 -75 -103 -213zM881 1487h184q-14 -92 -14 -227v-78h98q123 0 209 12v-156q-86 13 -209 13h-98v-713q0 -83 26 -109q34 -34 101 -34q72 0 161 51l45 -142q-113 -47 -231 -47q-137 0 -201 64q-57 57 -57 196v734h-82
q-73 0 -184 -13v156q68 -12 184 -12h82v78q0 132 -14 227z" />
    <glyph glyph-name="uni24B0" unicode="&#x24b0;" 
d="M367 -176l-72 -33q-66 128 -102 213q-152 373 -152 774q0 404 152 774q32 76 102 215l72 -32q-70 -127 -101 -203q-147 -346 -147 -754q0 -404 147 -751q31 -76 101 -203zM1755 -209l-72 33q70 127 101 203q147 347 147 751t-147 754q-31 76 -101 203l72 32
q76 -151 103 -215q151 -370 151 -774t-151 -774q-32 -75 -103 -213zM1350 209v133q0 37 6 90q-76 -127 -176 -186.5t-238 -59.5q-226 0 -328 154q-57 91 -57 238v505q0 138 -14 230h184q-14 -101 -14 -232v-477q0 -137 64 -211t184 -74q174 0 294 162q40 54 61 99t34 106
v395q0 124 -15 232h183q-15 -108 -15 -232v-641q0 -115 17 -231h-170z" />
    <glyph glyph-name="uni24B1" unicode="&#x24b1;" 
d="M489 1276h193q17 -87 63 -203l234 -602q29 -78 45 -133q15 49 47 133l234 602q46 116 61 203h193q-24 -44 -101 -227l-287 -689q-5 -12 -13.5 -34t-11.5 -29.5t-8.5 -22.5t-7.5 -20t-6 -16.5t-5 -16.5t-4 -14.5t-5 -17.5t-4 -19h-162q-13 56 -67 190l-285 689
q-53 123 -103 227zM367 -176l-72 -33q-66 128 -102 213q-152 373 -152 774q0 404 152 774q32 76 102 215l72 -32q-70 -127 -101 -203q-147 -346 -147 -754q0 -404 147 -751q31 -76 101 -203zM1755 -209l-72 33q70 127 101 203q147 347 147 751t-147 754q-31 76 -101 203
l72 32q76 -151 103 -215q151 -370 151 -774t-151 -774q-32 -75 -103 -213z" />
    <glyph glyph-name="uni24B2" unicode="&#x24b2;" 
d="M367 -176l-72 -33q-66 128 -102 213q-152 373 -152 774q0 404 152 774q32 76 102 215l72 -32q-70 -127 -101 -203q-147 -346 -147 -754q0 -404 147 -751q31 -76 101 -203zM1755 -209l-72 33q70 127 101 203q147 347 147 751t-147 754q-31 76 -101 203l72 32
q76 -151 103 -215q151 -370 151 -774t-151 -774q-32 -75 -103 -213zM1438 170h-142q-11 59 -41 154l-200 596q-1 5 -5 20.5t-13 47.5t-17 63q-8 -31 -39 -133l-199 -594q-34 -99 -43 -154h-143q-17 72 -43 156l-221 708q-41 137 -82 242h188q6 -95 47 -225l150 -510
q17 -51 39 -148q10 44 41 148l196 579q33 101 39 156h137q10 -61 41 -156l197 -592q14 -43 27 -92q8 -31 12 -45q28 123 33 139l153 521q38 128 45 225h187q-23 -62 -80 -242l-221 -710q-32 -97 -43 -154z" />
    <glyph glyph-name="uni24B3" unicode="&#x24b3;" 
d="M367 -176l-72 -33q-66 128 -102 213q-152 373 -152 774q0 404 152 774q32 76 102 215l72 -32q-70 -127 -101 -203q-147 -346 -147 -754q0 -404 147 -751q31 -76 101 -203zM1755 -209l-72 33q70 127 101 203q147 347 147 751t-147 754q-31 76 -101 203l72 32
q76 -151 103 -215q151 -370 151 -774t-151 -774q-32 -75 -103 -213zM1528 209h-203q-32 64 -92 151l-217 314l-228 -332q-32 -46 -79 -133h-203q72 89 135 178l283 393l-265 369q-26 39 -120 164h198q26 -60 80 -137l201 -289l199 289q52 76 79 137h199q-94 -127 -125 -170
l-260 -363l270 -377q7 -9 17 -22t43 -56t88 -116z" />
    <glyph glyph-name="uni24B4" unicode="&#x24b4;" 
d="M987 416l-375 833q-92 203 -112 240h200q18 -100 70 -217l297 -688l264 688q54 137 68 217h190q-5 -13 -18 -44t-36.5 -86.5t-45.5 -109.5l-459 -1118q-40 -98 -110 -144t-179 -46q-63 0 -168 22l43 152q74 -35 125 -35q104 0 152 113zM367 -176l-72 -33
q-66 128 -102 213q-152 373 -152 774q0 404 152 774q32 76 102 215l72 -32q-70 -127 -101 -203q-147 -346 -147 -754q0 -404 147 -751q31 -76 101 -203zM1755 -209l-72 33q70 127 101 203q147 347 147 751t-147 754q-31 76 -101 203l72 32q76 -151 103 -215
q151 -370 151 -774t-151 -774q-32 -75 -103 -213z" />
    <glyph glyph-name="uni24B5" unicode="&#x24b5;" 
d="M1442 1319v-123q-68 -73 -137 -168l-441 -588q-1 -1 -78 -96q100 4 142 4h323q137 0 232 14v-167q-104 14 -232 14h-434q-141 0 -227 -6v135q73 76 139 166l451 602q30 41 61 74q-55 -4 -102 -4h-279q-112 0 -229 -15v166q112 -14 229 -14h365q160 0 217 6zM367 -176
l-72 -33q-66 128 -102 213q-152 373 -152 774q0 404 152 774q32 76 102 215l72 -32q-70 -127 -101 -203q-147 -346 -147 -754q0 -404 147 -751q31 -76 101 -203zM1755 -209l-72 33q70 127 101 203q147 347 147 751t-147 754q-31 76 -101 203l72 32q76 -151 103 -215
q151 -370 151 -774t-151 -774q-32 -75 -103 -213z" />
    <glyph glyph-name="Japan1.8184" 
d="M1690 1726h145l-1577 -1890h-145zM164 1587v142q54 -7 117 -7h116q49 0 117 7q-12 -132 -12 -228v-672q0 -77 12 -157h-166q12 59 12 157v766h-73q-76 0 -123 -8zM1919 -27v-143q-104 8 -168 8h-430q-99 0 -156 -8q13 103 35 166q44 131 158 242q49 46 180 141
q123 85 166 125q57 60 57 129q0 72 -55 112.5t-152 40.5q-92 0 -151 -53q-28 -26 -43 -58.5t-29 -92.5l-147 22q19 72 40 115.5t56 83.5q102 108 279 108q157 0 251.5 -76t94.5 -202q0 -71 -28.5 -127t-92.5 -111q-22 -21 -43.5 -36t-138.5 -95q-124 -87 -176.5 -148.5
t-77.5 -148.5h405q83 0 166 6z" />
    <glyph glyph-name="Japan1.8185" 
d="M1786 1726h145l-1661 -1890h-145zM172 1587v142q61 -7 117 -7h117q48 0 116 7q-12 -138 -12 -228v-672q0 -75 12 -157h-166q13 80 13 157v766h-74q-74 0 -123 -8zM1106 82v125q47 54 94 115l359 444q61 77 104 143h135q-8 -96 -8 -239v-459h33q53 0 145 10v-143
q-61 10 -151 10h-27v-104q0 -88 10 -152h-153q10 61 10 152v104h-381q-108 0 -170 -6zM1657 211v315q0 94 8 187q-60 -76 -68 -88l-36 -45l-289 -369h385z" />
    <glyph glyph-name="uni24EA" unicode="&#x24ea;" 
d="M1026 88q-243 0 -370.5 177.5t-127.5 514.5q0 329 128 508.5t362 179.5q108 0 203 -42t155 -117q66 -82 104 -226t38 -315q0 -327 -128 -503.5t-364 -176.5zM1020 1341q-170 0 -257 -142.5t-87 -420.5t88 -420.5t258 -142.5q172 0 260 142.5t88 420.5q0 563 -350 563z
M1024 1761q200 0 381.5 -77.5t313 -209t209 -313t77.5 -381.5t-77.5 -382t-208.5 -313.5t-313 -209.5t-382 -78q-199 0 -381 78t-313 209.5t-209 313.5t-78 382q0 199 78 381t209 313t313 209t381 78zM1024 1694q-186 0 -355 -72.5t-291 -195t-194.5 -291.5t-72.5 -355
t72.5 -355.5t194.5 -292t291 -195t355 -72.5t355 72.5t291 195t194.5 292t72.5 355.5t-72.5 355t-194.5 291.5t-291 195t-355 72.5z" />
    <glyph glyph-name="uni216A" unicode="&#x216a;" 
d="M780 707l-315 -498q-66 -107 -111 -209h-227q99 129 172 240l383 581l-338 510q-75 115 -158 225h222q46 -108 100 -190l278 -430l271 430q70 115 96 190h221q-81 -109 -157 -225l-334 -510l379 -577q70 -106 178 -244h-228q-73 142 -112 205zM1618 1556h186
q-16 -93 -16 -231v-1094q0 -138 16 -231h-186q16 96 16 231v1094q0 135 -16 231z" />
    <glyph glyph-name="uni216B" unicode="&#x216b;" 
d="M258 0h-207q96 142 154 242l344 579l-305 510q-60 101 -142 225h207q29 -86 94 -198l244 -422l238 422q59 109 88 198h211q-67 -94 -144 -227l-301 -510l338 -573q57 -97 162 -246h-215q-5 12 -17 36.5t-22 47.5q-24 43 -31 59q-22 49 -30 62l-281 495l-285 -493
q-61 -107 -100 -207zM1321 1556h178q-16 -96 -16 -231v-1094q0 -138 16 -231h-178q16 101 16 231v1094q0 138 -16 231zM1726 1556h179q-17 -96 -17 -231v-1094q0 -129 17 -231h-179q17 108 17 231v1094q0 126 -17 231z" />
    <glyph glyph-name="Japan1.8227" 
d="M367 -176l-72 -33q-66 128 -102 213q-152 373 -152 774q0 404 152 774q32 76 102 215l72 -32q-70 -127 -101 -203q-147 -346 -147 -754q0 -404 147 -751q31 -76 101 -203zM1755 -209l-72 33q70 127 101 203q147 347 147 751t-147 754q-31 76 -101 203l72 32
q76 -151 103 -215q151 -370 151 -774t-151 -774q-32 -75 -103 -213zM1020 -31q-227 0 -373 146q-87 87 -123 188q-78 219 -78 473q0 163 32.5 315.5t86.5 241.5q149 252 457 252q236 0 375 -145q85 -85 123 -189q77 -213 77 -475q0 -186 -37.5 -342t-105.5 -250
q-153 -215 -434 -215zM1022 1444q-157 0 -256 -105q-69 -75 -92 -149q-64 -186 -64 -414q0 -141 27.5 -277.5t69.5 -209.5q108 -178 315 -178q159 0 252 96q69 72 96 160q64 189 64 413q0 133 -26.5 269t-66.5 208q-103 187 -319 187z" />
    <glyph glyph-name="Japan1.8228" 
d="M1761 1479l-233 -250q71 -201 71 -453q0 -186 -38 -343t-105 -249q-153 -215 -434 -215q-299 0 -447 238l-204 -219l-103 94l244 260q-66 204 -66 442q0 159 32.5 308.5t86.5 240.5q149 252 457 252q146 0 253 -54.5t187 -168.5l197 211zM641 483l709 758
q-101 203 -328 203q-162 0 -256 -105q-156 -170 -156 -538q0 -169 31 -318zM1399 1092l-711 -764q102 -217 336 -217q157 0 252 98q64 64 96 158q64 180 64 399q0 169 -37 326z" />
    <glyph glyph-name="uni2776" unicode="&#x2776;" 
d="M1024 1759q200 0 381.5 -77.5t313 -209t209 -313t77.5 -381.5t-77.5 -381.5t-209 -313t-313 -209t-381.5 -77.5t-382 78t-313 209.5t-208.5 313t-77.5 380.5t78 381t209 313t313 209t381 78zM737 1413v-139q69 10 148 10h86v-981q0 -105 -15 -192h172q-14 88 -14 192v830
q0 137 14 280q-91 -8 -141 -8h-110q-103 3 -140 8z" />
    <glyph glyph-name="uni2777" unicode="&#x2777;" 
d="M1024 1759q200 0 381.5 -77.5t313 -209t209 -313t77.5 -381.5t-77.5 -381.5t-209 -313t-313 -209t-381.5 -77.5q-199 0 -381 78t-313 209t-209 313t-78 381t78 381t209 313t313 209t381 78zM584 1081l151 -24q9 68 23.5 107.5t44.5 76.5q76 94 233 94q129 0 203 -56.5
t74 -154.5q0 -113 -99 -196q-42 -35 -167 -121q-170 -117 -245.5 -187t-133.5 -167q-47 -78 -66 -135.5t-39 -186.5q79 8 191 8h518q80 0 207 -10v145q-85 -10 -203 -10h-537q39 168 189 295q70 57 250 178q136 93 186 148q96 102 96 239q0 154 -114.5 244t-309.5 90
q-242 0 -360 -151q-34 -44 -53.5 -92.5t-38.5 -133.5z" />
    <glyph glyph-name="uni2778" unicode="&#x2778;" 
d="M1024 1761q200 0 381.5 -77.5t313 -209t209 -313t77.5 -381.5t-77.5 -382t-208.5 -313.5t-313 -209.5t-382 -78q-199 0 -381 78t-313 209.5t-209 313.5t-78 382q0 199 78 381t209 313t313 209t381 78zM694 446l-151 -32q24 -67 42.5 -102.5t47.5 -65.5q125 -140 381 -140
q215 0 339 100t124 273q0 185 -136 273q-41 28 -82.5 40.5t-111.5 18.5q78 12 126 34.5t85 63.5q74 83 74 226t-111.5 231t-294.5 88q-235 0 -350 -133q-27 -32 -43 -64.5t-37 -97.5l149 -33q17 62 35.5 95t50.5 61q65 53 189 53q125 0 194.5 -59t69.5 -166
q0 -65 -27.5 -117.5t-78.5 -83.5q-32 -19 -89.5 -31t-115.5 -12q-66 0 -123 8v-135q105 9 139 9q168 0 254 -65.5t86 -193.5q0 -121 -84.5 -190.5t-232.5 -69.5q-151 0 -236 76q-32 27 -49.5 57t-32.5 84z" />
    <glyph glyph-name="uni2779" unicode="&#x2779;" 
d="M608 580l396 497q67 85 116 156q-8 -101 -8 -225v-428h-504zM1024 1759q201 0 383 -77.5t313.5 -209t209 -313t77.5 -381.5t-78 -382t-209.5 -313t-313.5 -208.5t-382 -77.5q-199 0 -380.5 77.5t-313 208.5t-209.5 313t-78 382q0 199 78 381t209 313t313 209t381 78z
M451 584v-135q71 8 206 8h455v-146q0 -96 -14 -184h162q-13 74 -13 184v146h64q67 0 178 -13v148q-64 -12 -180 -12h-62v557q0 165 10 288h-141q-49 -79 -125 -174l-428 -536q-100 -119 -112 -131z" />
    <glyph glyph-name="uni277A" unicode="&#x277a;" 
d="M1024 1759q200 0 381.5 -77.5t313 -209t209 -313t77.5 -381.5t-77.5 -381.5t-209 -313t-313 -209t-381.5 -77.5q-199 0 -380.5 77.5t-313 208.5t-209.5 313t-78 382q0 199 78 381t209 313t313 209t381 78zM616 678l134 -10q17 39 36.5 63t55.5 49q88 60 200 60
q137 0 217 -84t80 -226q0 -146 -86 -233.5t-227 -87.5q-156 0 -244 102q-31 37 -51 97l-145 -41q29 -63 52 -96.5t58 -65.5q125 -119 330 -119q207 0 333 123.5t126 327.5q0 191 -115 303q-55 55 -136 85.5t-171 30.5q-183 0 -297 -120q13 52 16 96l35 352h395
q116 0 201 -12v147q-79 -12 -201 -12h-350q-123 0 -182 10q4 -35 4 -71q0 -18 -6 -97l-37 -399q-7 -79 -25 -172z" />
    <glyph glyph-name="uni277B" unicode="&#x277b;" 
d="M1047 852q142 0 222.5 -82.5t80.5 -228.5t-84 -230q-88 -88 -224 -88q-138 0 -229.5 91.5t-91.5 228.5q0 133 93 221t233 88zM1024 1761q200 0 381.5 -77.5t313 -209t209 -313t77.5 -381.5t-77.5 -382t-208.5 -313.5t-313 -209.5t-382 -78q-199 0 -381 78t-313 209.5
t-209 313.5t-78 382q0 199 78 381t209 313t313 209t381 78zM1311 1143l137 43q-40 86 -75 130.5t-91 78.5q-94 57 -240 57q-121 0 -221 -59t-166 -170q-46 -77 -74 -209t-28 -273q0 -312 127 -473q128 -166 356 -166q203 0 328 121.5t125 319.5q0 197 -115.5 313.5
t-310.5 116.5q-179 0 -291 -109q-42 -37 -82 -108q9 171 34 269.5t79 176.5q89 129 244 129q126 0 204 -84q35 -37 60 -104z" />
    <glyph glyph-name="uni277C" unicode="&#x277c;" 
d="M1024 1759q201 0 383 -77.5t313.5 -209t209 -313t77.5 -381.5t-77.5 -381.5t-209 -313t-313.5 -209t-383 -77.5q-199 0 -380.5 77.5t-313 208.5t-209.5 313t-78 382q0 199 78 381t209 313t313 209t381 78zM1483 1249v129q-71 -10 -199 -10h-512q-108 0 -197 12v-151
q71 12 195 12h549q-212 -282 -324 -524q-75 -158 -117.5 -304t-70.5 -339h170q23 196 66.5 351.5t121.5 328.5q83 178 215 366q47 69 63.5 89t39.5 40z" />
    <glyph glyph-name="uni277D" unicode="&#x277d;" 
d="M1026 1329q129 0 206 -62t77 -165q0 -113 -75.5 -177.5t-207.5 -64.5q-130 0 -206.5 65t-76.5 175q0 124 99 182q76 47 184 47zM1028 737q154 0 243 -70.5t89 -193.5q0 -121 -87 -187.5t-247 -66.5t-247 66.5t-87 187.5q0 123 89.5 193.5t246.5 70.5zM1024 1761
q200 0 381.5 -77.5t313 -209t209 -313t77.5 -381.5t-77.5 -382t-208.5 -313.5t-313 -209.5t-382 -78q-199 0 -381 78t-313 209.5t-209 313.5t-78 382q0 199 78 381t209 313t313 209t381 78zM850 805q-114 -20 -184 -82q-119 -98 -119 -256q0 -97 43 -175t121 -124
q55 -32 140.5 -51t174.5 -19q103 0 193 22t147 62q68 47 104.5 121t36.5 164q0 172 -137 270q-64 51 -168 68q114 22 181 105t67 204q0 154 -114.5 245t-309.5 91q-172 0 -281 -72q-141 -97 -141 -266q0 -120 66.5 -202.5t179.5 -104.5z" />
    <glyph glyph-name="uni277E" unicode="&#x277e;" 
d="M1024 696q-141 0 -222 84t-81 230q0 116 55 190q44 60 111 92.5t145 32.5q137 0 227.5 -90.5t90.5 -228.5q0 -133 -93 -221.5t-233 -88.5zM1024 1761q200 0 381.5 -77.5t313 -209t209 -313t77.5 -381.5t-77.5 -382t-208.5 -313.5t-313 -209.5t-382 -78q-199 0 -381 78
t-313 209.5t-209 313.5t-78 382q0 199 78 381t209 313t313 209t381 78zM748 410l-144 -45q32 -64 53.5 -96.5t51.5 -59.5q112 -109 303 -109q189 0 311 113q80 74 121 174q69 186 69 416q0 179 -34 300.5t-109 205.5q-124 139 -334 139q-127 0 -231.5 -54.5t-163.5 -150.5
q-61 -99 -61 -246q0 -187 116 -303t303 -116q150 0 263 81q43 33 67.5 61.5t46.5 70.5q-8 -183 -33 -281q-79 -287 -323 -287q-134 0 -209 78q-32 32 -63 109z" />
    <glyph glyph-name="Japan1.8295" 
d="M102 1556h174q19 -63 74 -178l209 -436l203 436q53 115 72 178h178q-76 -136 -119 -225l-254 -516l281 -571q52 -104 135 -244h-187q-43 121 -84 205l-227 477l-231 -477q-41 -84 -84 -205h-181q68 120 129 242l285 575l-256 516q-49 104 -117 223zM1106 1556h168
q-17 -102 -17 -231v-1094q0 -129 17 -231h-168q16 96 16 231v1094q0 132 -16 231zM1444 1556h168q-17 -102 -17 -231v-1094q0 -135 17 -231h-168q16 93 16 231v1094q0 135 -16 231zM1780 1556h168q-17 -99 -17 -231v-1094q0 -132 17 -231h-168q16 101 16 231v1094
q0 132 -16 231z" />
    <glyph glyph-name="Japan1.8296" 
d="M487 680l-194 -473q-41 -102 -70 -207h-174q59 116 115 242l246 567l-222 524q-70 161 -100 223h164q24 -99 65 -198l172 -428l177 428q45 109 65 198h170q-42 -82 -104 -225l-232 -524l234 -563q45 -107 112 -244h-176q-33 114 -67 205zM1106 0h-168q16 99 16 231v1094
q0 143 -16 231h168q-16 -85 -16 -231v-1094q0 -138 16 -231zM1634 0h-141q-6 53 -37 190l-256 1129q-37 177 -55 237h155q6 -78 35 -217l215 -1020q3 -13 6 -45q4 -24 9 -49q2 14 4.5 32.5t3.5 23.5q4 36 4 38l215 1020q25 130 33 217h162q-25 -84 -62 -237l-254 -1129
q-24 -105 -37 -190z" />
    <glyph glyph-name="Japan1.8297" 
d="M1016 1556h176q4 -69 39 -215l254 -1015q1 -3 2.5 -14t5.5 -36t8 -49q14 77 19 97l252 1017q25 109 38 215h172q-17 -47 -24 -77q-9 -41 -25 -86q-4 -17 -8.5 -34t-7.5 -27t-4 -13l-297 -1129q-34 -126 -43 -190h-141q-5 39 -46 190l-296 1129q-51 184 -74 237zM621 819
l272 -575q48 -99 129 -244h-184q-33 92 -82 209l-217 475l-220 -473q-43 -93 -83 -211h-181q90 172 125 242l277 583l-246 508q-38 80 -111 223h174q19 -72 72 -182l193 -424l190 424q49 109 70 182h180q-71 -127 -115 -225z" />
    <glyph glyph-name="uni217A" unicode="&#x217a;" 
d="M698 571l-254 369q-14 22 -118 164h194q27 -63 78 -139l195 -291l192 291q45 64 76 139h192q-35 -50 -55 -78q-12 -15 -19 -25.5t-19 -28t-27 -38.5l-248 -363l260 -374q74 -109 143 -197h-198q-40 78 -89 154l-210 315l-222 -334q-30 -47 -75 -135h-199q106 145 129 178
zM1438 1556h192v-182h-192v182zM1442 1104h180q-14 -101 -14 -234v-639q0 -116 14 -231h-180q14 129 14 231v641q0 123 -14 232z" />
    <glyph glyph-name="uni217B" unicode="&#x217b;" 
d="M1202 1556h187v-182h-187v182zM1208 1104h172q-14 -104 -14 -234v-639q0 -119 14 -231h-172q15 135 15 231v641q0 118 -15 232zM1595 1556h187v-182h-187v182zM1602 1104h172q-15 -111 -15 -234v-639q0 -111 15 -231h-172q14 126 14 231v641q0 128 -14 232zM662 467
l-211 -334q-25 -37 -72 -133h-180q56 81 120 178l254 393l-235 369q-14 20 -52.5 77t-58.5 87h174q43 -91 74 -137l187 -291l186 291q41 60 74 137h174q-17 -21 -54 -76q-7 -10 -59 -92l-233 -365l243 -378q28 -42 131 -193h-180q-36 76 -80 147z" />
    <glyph glyph-name="Japan1.8300" 
d="M170 1104h156q38 -98 59 -137l145 -291l146 291q34 64 57 137h156q-27 -49 -39 -72q-12 -21 -18.5 -33.5t-15 -29t-17.5 -33.5l-193 -371l193 -372q67 -127 106 -193h-166q-17 51 -63 147l-146 306l-153 -320q-36 -74 -58 -133h-163q32 53 98 178l201 385l-195 377
q-9 17 -18 33.5t-29.5 53t-42.5 77.5zM967 1556h178v-182h-178v182zM973 1104h164q-15 -92 -15 -234v-639q0 -133 15 -231h-164q14 100 14 231v641q0 146 -14 232zM1298 1556h179v-182h-179v182zM1305 1104h163q-14 -84 -14 -234v-639q0 -125 14 -231h-163q14 100 14 231
v641q0 146 -14 232zM1630 1556h178v-182h-178v182zM1636 1104h164q-14 -95 -14 -234v-639q0 -140 14 -231h-164q15 112 15 231v641q0 130 -15 232z" />
    <glyph glyph-name="Japan1.8301" 
d="M926 1559h176v-183h-176v183zM932 1104h160q-13 -91 -13 -234v-639q0 -133 15 -231h-162q14 120 14 231v641q0 128 -14 232zM145 1104h156q38 -98 59 -137l146 -291l145 291q37 69 58 137h155q-27 -49 -39 -72q-12 -21 -18.5 -33.5t-15 -29t-17.5 -33.5l-192 -371
l192 -372q59 -112 107 -193h-166q-15 44 -64 147l-145 306l-154 -320q-32 -66 -57 -133h-164q32 53 98 178l201 385l-194 377q-10 20 -36.5 66.5t-54.5 97.5zM1774 1104h172q-37 -105 -74 -225l-207 -691q-38 -126 -47 -188h-148q-10 61 -49 188l-202 691q-38 123 -78 225
h176q11 -75 47 -205l160 -586q1 -4 3 -17t7 -41l10 -56q11 72 21 112l164 588q30 103 45 205z" />
    <glyph glyph-name="Japan1.8302" 
d="M674 571l235 -378q44 -72 125 -193h-172q-33 75 -78 147l-192 318l-201 -332q-32 -50 -67 -133h-172q80 119 116 178l242 393l-225 369q-64 102 -107 164h168q43 -94 70 -137l178 -291l176 291q41 65 68 137h168q-93 -144 -107 -168zM1032 1104h166q11 -86 51 -203
l191 -592q32 -103 39 -133q16 72 37 133l192 592q44 149 51 203h166q-8 -20 -20 -51q-47 -118 -66 -176l-233 -689q-48 -140 -60 -188h-137q-12 50 -59 188l-234 689q-18 53 -84 227z" />
    <glyph glyph-name="Japan1.9780" 
d="M1743 1724h145l-1577 -1892h-145zM1155 78l145 35q18 -66 43 -101q67 -82 201 -82q110 0 175 53.5t65 145.5q0 193 -258 193q-28 0 -123 -9v138q83 -9 108 -9q112 0 168 39q68 52 68 146q0 78 -52.5 122t-144.5 44t-139 -38.5t-72 -133.5l-145 30q25 81 55 121
q94 137 305 137q154 0 245 -74t91 -200q0 -116 -65 -178q-24 -24 -51.5 -38.5t-77.5 -27.5q81 -17 133 -55q98 -70 98 -213q0 -145 -101 -228t-276 -83q-248 0 -346 155q-20 31 -49 111zM498 647q-189 0 -287 141t-98 412q0 279 112 420q100 123 281 123q178 0 270 -123
q113 -149 113 -424q0 -269 -99.5 -409t-291.5 -140zM502 1624q-128 0 -187 -104q-63 -117 -63 -316q0 -229 67 -338q67 -98 181 -98q127 0 189.5 105.5t62.5 320.5q0 218 -62 324t-188 106z" />
    <glyph glyph-name="Japan1.9781" 
d="M1690 1726h145l-1577 -1890h-145zM164 1587v142q54 -7 117 -7h116q49 0 117 7q-12 -132 -12 -228v-672q0 -77 12 -157h-166q12 59 12 157v766h-73q-76 0 -123 -8zM1155 78l145 35q18 -66 43 -101q67 -82 201 -82q110 0 175 53.5t65 145.5q0 193 -258 193q-28 0 -123 -9
v138q83 -9 108 -9q112 0 168 39q68 52 68 146q0 78 -52.5 122t-144.5 44t-139 -38.5t-72 -133.5l-145 30q25 81 55 121q94 137 305 137q154 0 245 -74t91 -200q0 -116 -65 -178q-24 -24 -51.5 -38.5t-77.5 -27.5q81 -17 133 -55q98 -70 98 -213q0 -145 -101 -228t-276 -83
q-248 0 -346 155q-20 31 -49 111z" />
    <glyph glyph-name="Japan1.9782" 
d="M1761 1724h146l-1577 -1892h-146zM1174 78l145 35q18 -66 43 -101q67 -82 201 -82q110 0 174.5 53.5t64.5 145.5q0 193 -258 193q-29 0 -123 -9v138q83 -9 109 -9q112 0 168 39q67 51 67 146q0 78 -52 122t-144 44t-139 -38.5t-72 -133.5l-146 30q24 79 56 121
q94 137 305 137q154 0 245 -74t91 -200q0 -115 -66 -178q-24 -24 -51.5 -38.5t-77.5 -27.5q81 -17 133 -55q99 -70 99 -213q0 -145 -101 -228t-276 -83q-248 0 -346 155q-20 31 -49 111zM829 819v-141q-104 8 -167 8h-418q-97 0 -154 -8q13 100 33 162q46 130 158 239
q46 44 182 142q129 90 166 125q57 57 57 127q0 71 -55 111t-152 40q-95 0 -151 -53q-28 -25 -44.5 -58t-29.5 -92l-145 23q17 71 38 113.5t58 82.5q104 107 278 107q157 0 251.5 -75t94.5 -199q0 -71 -28 -126.5t-92 -109.5q-31 -27 -183 -131q-124 -84 -176.5 -145
t-77.5 -148h392q82 0 165 6z" />
    <glyph glyph-name="Japan1.9783" 
d="M1796 1724h146l-1577 -1892h-146zM1094 84v125q11 13 94 115l356 444q67 81 105 143h137q-8 -72 -8 -239v-459h32q54 0 146 10v-143q-61 10 -152 10h-26v-104q0 -88 10 -152h-154q11 67 11 152v104h-383q-106 0 -168 -6zM1645 213v315q0 82 6 187q-41 -53 -66 -88
q-19 -22 -37 -45l-288 -369h385zM106 915l146 33q18 -63 43 -98q67 -82 201 -82q110 0 174.5 53.5t64.5 145.5q0 192 -260 192q-42 0 -121 -10v139q70 -8 109 -8q112 0 168 39q67 51 67 145q0 78 -52 122t-144 44t-139 -38.5t-72 -133.5l-146 31q25 80 54 121
q94 137 307 137q154 0 245 -74t91 -200q0 -115 -66 -181q-23 -23 -50.5 -36.5t-80.5 -28.5q88 -19 135 -53q99 -74 99 -216q0 -143 -101 -226t-276 -83q-248 0 -348 154q-20 36 -48 112z" />
    <glyph glyph-name="Japan1.9784" 
d="M1690 1726h145l-1577 -1890h-145zM164 1587v142q54 -7 117 -7h116q49 0 117 7q-12 -132 -12 -228v-672q0 -77 12 -157h-166q12 59 12 157v766h-73q-76 0 -123 -8zM1321 272l-125 11q19 94 23 151l26 301q6 49 6 80q0 43 -6 70q16 -4 19 -4q49 -9 141 -9h278q78 0 172 13
v-142q-99 11 -172 11h-307l-22 -265q-1 -4 -2.5 -14.5t-3.5 -21.5q55 44 102.5 60.5t118.5 16.5q72 0 138.5 -25t113.5 -71q94 -91 94 -250q0 -169 -103.5 -270.5t-275.5 -101.5q-196 0 -307 139q-27 34 -60 104l144 41q19 -78 78 -122t147 -44q106 0 170 68t64 180
q0 113 -60.5 175.5t-169.5 62.5q-59 0 -115 -27.5t-84 -69.5q-10 -15 -22 -47z" />
    <glyph glyph-name="Japan1.9785" 
d="M1761 1724h146l-1577 -1892h-146zM1348 272l-125 11q18 86 22 151l27 301q6 49 6 80q0 43 -6 70q16 -4 18 -4q49 -9 142 -9h278q78 0 172 13v-142q-99 11 -172 11h-307l-23 -265q-1 -4 -2.5 -14.5t-3.5 -21.5q55 44 102.5 60.5t118.5 16.5q72 0 138.5 -25t113.5 -71
q95 -92 95 -250q0 -169 -103.5 -270.5t-275.5 -101.5q-197 0 -308 139q-25 31 -59 104l143 41q19 -78 78.5 -122t147.5 -44q106 0 169.5 67.5t63.5 180.5t-60 175.5t-169 62.5q-59 0 -115 -27.5t-84 -69.5q-10 -15 -22 -47zM829 819v-141q-104 8 -167 8h-418q-97 0 -154 -8
q13 100 33 162q46 130 158 239q46 44 182 142q129 90 166 125q57 57 57 127q0 71 -55 111t-152 40q-95 0 -151 -53q-28 -25 -44.5 -58t-29.5 -92l-145 23q17 71 38 113.5t58 82.5q104 107 278 107q157 0 251.5 -75t94.5 -199q0 -71 -28 -126.5t-92 -109.5q-31 -27 -183 -131
q-124 -84 -176.5 -145t-77.5 -148h392q82 0 165 6z" />
    <glyph glyph-name="Japan1.9786" 
d="M1741 1724h145l-1577 -1892h-145zM1341 272l-124 11q18 86 22 151l27 301q6 49 6 80q0 43 -6 70q16 -4 18 -4q50 -9 141 -9h277q80 0 174 13v-142q-99 11 -172 11h-307l-25 -265q0 -16 -4 -36q55 44 102.5 60.5t118.5 16.5q72 0 138 -25t112 -71q96 -90 96 -250
q0 -169 -103.5 -270.5t-275.5 -101.5q-196 0 -307 139q-25 31 -59 104l141 41q20 -78 80 -122t148 -44q106 0 169.5 67.5t63.5 180.5t-60 175.5t-169 62.5q-60 0 -116.5 -27.5t-82.5 -69.5q-13 -19 -23 -47zM76 915l145 33q18 -63 43 -98q67 -82 201 -82q110 0 175 53.5
t65 145.5q0 192 -261 192q-41 0 -120 -10v139q70 -8 108 -8q112 0 168 39q68 52 68 145q0 78 -52.5 122t-144.5 44t-139 -38.5t-72 -133.5l-145 31q26 82 53 121q94 137 307 137q154 0 245 -74t91 -200q0 -115 -66 -181q-23 -23 -50.5 -36.5t-80.5 -28.5q89 -19 136 -53
q98 -73 98 -216t-101 -226t-276 -83q-248 0 -348 154q-18 31 -47 112z" />
    <glyph glyph-name="Japan1.9787" 
d="M1743 1724h145l-1579 -1892h-143zM1341 272l-124 11q18 86 22 151l27 301q6 49 6 80q0 43 -6 70q16 -4 18 -4q50 -9 141 -9h279q78 0 172 13v-142q-99 11 -172 11h-307l-23 -265q-1 -4 -2.5 -14.5t-3.5 -21.5q55 44 102.5 60.5t118.5 16.5q72 0 138.5 -25t113.5 -71
q94 -91 94 -250q0 -169 -103.5 -270.5t-275.5 -101.5q-196 0 -307 139q-25 31 -59 104l143 41q19 -78 78.5 -122t147.5 -44q106 0 169.5 67.5t63.5 180.5t-60 175.5t-169 62.5q-59 0 -115 -27.5t-84 -69.5q-13 -19 -23 -47zM74 907v125q47 54 94 115l338 444q64 83 104 144
h135q-8 -96 -8 -240v-459h33q44 0 145 11v-144q-61 10 -151 10h-27v-104q0 -82 11 -152h-154q10 61 10 152v104h-360q-108 0 -170 -6zM604 1036v316q0 93 8 186q-45 -57 -67 -88q-10 -13 -22.5 -27.5t-14.5 -17.5l-268 -369h364z" />
    <glyph glyph-name="Japan1.9788" 
d="M1690 1726h145l-1577 -1890h-145zM164 1587v142q54 -7 117 -7h116q49 0 117 7q-12 -132 -12 -228v-672q0 -77 12 -157h-166q12 59 12 157v766h-73q-76 0 -123 -8zM1907 678l-135 -43q-21 58 -37 78q-57 78 -166 78q-123 0 -195 -117q-32 -52 -47.5 -118.5t-23.5 -178.5
q26 40 48 62t56 42q83 47 186 47q69 0 133.5 -25t110.5 -71q96 -89 96 -256t-98 -265.5t-264 -98.5q-192 0 -296 135t-104 385q0 131 27 242t76 178q112 157 295 157q157 0 248 -88q29 -27 41 -46.5t49 -96.5zM1571 412q-104 0 -173 -67.5t-69 -170.5q0 -104 68.5 -174
t171.5 -70q98 0 166 68q61 61 61 174q0 114 -59.5 177t-165.5 63z" />
    <glyph glyph-name="Japan1.9789" 
d="M1755 1724h146l-1577 -1892h-146zM274 1108l-127 10q16 67 25 152l27 301q6 49 6 80q0 15 -6 69q16 -4 18 -4q44 -8 141 -8h277q88 0 174 12v-141q-90 10 -174 10h-305l-25 -264q0 -3 -0.5 -8t-1.5 -13l-2 -16q56 44 103.5 61t117.5 17q72 0 138 -25t112 -71
q96 -90 96 -250q0 -169 -103.5 -271t-275.5 -102q-198 0 -307 139q-23 29 -59 105l141 41q20 -78 80 -122t148 -44q106 0 169.5 67.5t63.5 180.5q0 112 -60.5 174.5t-168.5 62.5q-60 0 -116.5 -27.5t-84.5 -68.5q-14 -28 -21 -47zM1907 678l-135 -43q-21 58 -37 78
q-57 78 -166 78q-123 0 -195 -117q-32 -52 -47.5 -118.5t-23.5 -178.5q26 40 48 62t56 42q83 47 186 47q69 0 133.5 -25t110.5 -71q96 -89 96 -256t-98.5 -265.5t-265.5 -98.5q-191 0 -294.5 135t-103.5 385q0 130 27 241t74 179q112 157 297 157q157 0 248 -88
q29 -27 41 -46.5t49 -96.5zM1571 412q-104 0 -173 -67.5t-69 -170.5q0 -104 68.5 -174t169.5 -70t166 68q63 60 63 174t-59.5 177t-165.5 63z" />
    <glyph glyph-name="Japan1.9790" 
d="M1675 1726h146l-1577 -1890h-146zM164 1587v142q54 -7 117 -7h116q49 0 117 7q-12 -132 -12 -228v-672q0 -77 12 -157h-166q12 59 12 157v766h-73q-76 0 -123 -8zM1927 885v-123q-18 -16 -27.5 -28.5t-62.5 -84.5q-130 -185 -205 -399q-41 -117 -61.5 -206t-30.5 -202
h-162q62 479 385 906h-403q-82 0 -164 -13v152q74 -13 166 -13h397q57 0 121 5q9 0 29 2q3 1 18 4z" />
    <glyph glyph-name="Japan1.9791" 
d="M1747 1724h145l-1577 -1892h-145zM1970 885v-123l-8 -8q-28 -24 -88.5 -115t-104.5 -176q-152 -288 -186 -621h-162q62 479 385 906h-403q-82 0 -164 -13v152q71 -13 166 -13h397q57 0 121 5q9 0 29 2q3 1 18 4zM825 819v-141q-104 8 -168 8h-417q-97 0 -154 -8
q13 100 33 162q46 131 157 239q43 41 183 142q129 90 166 125q57 57 57 127q0 71 -55 111t-152 40q-95 0 -151 -53q-28 -25 -44.5 -58t-29.5 -92l-146 23q17 71 38 113t59 83q104 107 278 107q157 0 251.5 -75t94.5 -199q0 -71 -28 -126.5t-92 -109.5q-31 -27 -183 -131
q-124 -84 -176.5 -145t-77.5 -148h391q83 0 166 6z" />
    <glyph glyph-name="Japan1.9792" 
d="M1743 1724h145l-1579 -1892h-143zM1970 885v-123l-8 -8q-29 -23 -88.5 -113t-104.5 -178q-153 -295 -186 -621h-160q59 477 383 906h-403q-80 0 -162 -13v152q72 -13 166 -13h395q57 0 121 5q9 0 27 2zM84 915l145 33q18 -63 43 -98q67 -82 201 -82q110 0 175 53.5
t65 145.5q0 192 -260 192q-42 0 -121 -10v139q70 -8 108 -8q112 0 168 39q68 52 68 145q0 78 -52.5 122t-144.5 44t-139 -38.5t-72 -133.5l-145 31q26 82 53 121q94 137 307 137q154 0 245 -74t91 -200q0 -116 -65 -181q-23 -23 -50.5 -36.5t-80.5 -28.5q88 -19 135 -53
q98 -73 98 -216t-101 -226t-276 -83q-248 0 -348 154q-18 31 -47 112z" />
    <glyph glyph-name="Japan1.9793" 
d="M1737 1724h145l-1577 -1892h-145zM1970 885v-123l-8 -8q-28 -24 -88.5 -115t-104.5 -176q-150 -290 -184 -621h-162q62 477 383 906h-401q-82 0 -164 -13v152q72 -13 166 -13h395q57 0 121 5q9 0 29 2q3 1 18 4zM74 907v125q47 54 94 115l338 444q64 83 104 144h135
q-8 -96 -8 -240v-459h33q44 0 145 11v-144q-61 10 -151 10h-27v-104q0 -82 11 -152h-154q10 61 10 152v104h-360q-108 0 -170 -6zM604 1036v316q0 93 8 186q-45 -57 -67 -88q-10 -13 -22.5 -27.5t-14.5 -17.5l-268 -369h364z" />
    <glyph glyph-name="Japan1.9794" 
d="M1735 1724h145l-1577 -1892h-145zM1970 885v-123l-8 -8q-29 -23 -90 -114t-105 -177q-150 -290 -184 -621h-162q62 477 383 906h-401q-82 0 -164 -13v152q71 -13 166 -13h397q58 0 119 5q9 0 29 2zM260 1108l-127 10q16 67 25 152l26 301q6 49 6 80q0 15 -6 69
q16 -4 19 -4q44 -8 141 -8h277q88 0 174 12v-141q-90 10 -174 10h-306l-24 -264q0 -3 -0.5 -8t-1.5 -13l-2 -16q56 44 103.5 61t117.5 17q72 0 138 -25t112 -71q96 -90 96 -250q0 -169 -103.5 -271t-275.5 -102q-198 0 -307 139q-23 29 -59 105l141 41q20 -78 80 -122
t147 -44q106 0 170 68t64 180t-61 174.5t-169 62.5q-60 0 -116 -27t-84 -69q-14 -28 -21 -47z" />
    <glyph glyph-name="Japan1.9795" 
d="M1751 1724h143l-1577 -1892h-143zM1978 885v-123l-8 -8q-28 -23 -88 -114t-104 -177q-153 -291 -187 -621h-161q62 479 385 906h-404q-82 0 -164 -13v152q71 -13 166 -13h397q57 0 121 5q9 0 29 2q3 1 18 4zM846 1516l-135 -43q-20 53 -37 77q-57 78 -166 78
q-123 0 -195 -117q-32 -52 -47.5 -118.5t-23.5 -178.5q27 40 49 62.5t55 40.5q85 49 186 49q69 0 133.5 -25t110.5 -71q96 -89 96 -256q0 -171 -99 -268t-275 -97q-179 0 -285 137q-102 132 -102 381q0 133 26.5 244t75.5 178q112 158 295 158q158 0 248 -90q30 -28 42 -47
t48 -94zM510 1249q-104 0 -173 -67t-69 -170q0 -104 68.5 -174t171.5 -70q98 0 166 68q61 61 61 174q0 114 -59.5 176.5t-165.5 62.5z" />
    <glyph glyph-name="Japan1.9796" 
d="M1663 1726h145l-1577 -1890h-145zM152 1587v142q54 -7 116 -7h117q49 0 117 7q-13 -143 -13 -228v-672q0 -71 13 -157h-166q12 59 12 157v766h-74q-75 0 -122 -8zM1360 385q-51 15 -78.5 30.5t-50.5 41.5q-60 63 -60 161q0 134 94 212.5t255 78.5q160 0 255 -76t95 -204
q0 -101 -60 -170q-23 -26 -50 -41.5t-77 -30.5q89 -20 136 -59q96 -78 96 -211q0 -82 -35 -148t-100 -106q-92 -53 -252 -53q-195 0 -298.5 77.5t-103.5 225.5q0 146 105 219q46 30 129 53zM1524 793q-104 0 -159.5 -45t-55.5 -130q0 -83 56 -131.5t153 -48.5
q101 0 158 47.5t57 130.5q0 85 -54.5 131t-154.5 46zM1524 319q-120 0 -187 -52t-67 -146q0 -92 65 -142.5t185 -50.5q121 0 186.5 50.5t65.5 142.5t-66 145t-182 53z" />
    </font>
</defs>
</svg>
